<svg width="250" height="250" viewBox="0 0 250 250" fill="none" xmlns="http://www.w3.org/2000/svg">
<circle cx="125" cy="125" r="125" fill="#DCE1F9"/>
<mask id="mask0" mask-type="alpha" maskUnits="userSpaceOnUse" x="0" y="0" width="250" height="250">
<circle cx="125" cy="125" r="125" fill="#DCE1F9"/>
</mask>
<g mask="url(#mask0)">
<path d="M45.2112 161.756C47.2052 157.942 49.2583 154.029 50.3867 149.727C50.9013 147.754 51.2068 145.688 51.2068 143.621C51.2068 141.174 50.778 138.724 49.7541 136.452C48.4462 133.549 47.1543 130.831 46.1573 128.063C45.1602 125.294 44.4527 122.474 44.2838 119.336C44.2651 118.995 44.257 118.652 44.257 118.312C44.257 115.189 45.0075 112.059 46.3288 109.167C47.6502 106.278 49.5451 103.632 51.8045 101.486C53.6324 99.7461 55.7578 98.2371 57.8645 96.629C59.9711 95.0182 62.059 93.3055 63.769 91.1184C65.1707 89.3307 66.1008 87.3742 66.6717 85.3479C67.2452 83.3217 67.4677 81.2231 67.4677 79.1164C67.4677 77.4333 67.3256 75.7447 67.1059 74.0803C66.795 71.7029 66.6154 69.2934 66.6154 66.8946C66.6154 61.2689 67.5937 55.7181 70.0809 50.7973C73.2838 44.4559 78.2556 39.7815 84.1762 36.5867C90.0968 33.3972 96.9608 31.7034 103.881 31.3737C104.683 31.3362 105.484 31.3174 106.285 31.3174C114.321 31.3174 122.286 33.1989 130.027 36.0078C137.767 38.8167 145.274 42.5529 152.393 46.2275C156.81 48.5083 160.723 50.5426 164.108 53.0915C167.493 55.6404 170.369 58.6905 172.781 63.0834C175.861 68.6957 177.491 75.1122 177.491 81.5152C177.491 83.4852 177.335 85.4525 177.024 87.3956C176.737 89.178 176.327 91.0488 175.984 92.9464C175.641 94.8439 175.365 96.7683 175.365 98.6713C175.365 99.8586 175.472 101.038 175.746 102.193C176.019 103.348 176.461 104.479 177.118 105.549C177.694 106.495 178.397 107.312 179.168 108.039C180.329 109.127 181.645 110.011 182.977 110.826C184.314 111.641 185.668 112.386 186.917 113.177C191.701 116.2 195.555 120.55 198.214 125.565C200.87 130.579 202.326 136.253 202.326 141.898C202.326 144.83 201.934 147.751 201.119 150.574C200.715 151.973 200.208 153.375 199.728 154.811C199.246 156.245 198.79 157.716 198.498 159.258C198.268 160.48 198.158 161.718 198.158 162.956C198.158 166.167 198.908 169.37 200.305 172.254C200.758 173.189 201.334 174.012 201.926 174.771C202.816 175.907 203.741 176.915 204.408 177.917C204.74 178.419 205.011 178.917 205.196 179.424C205.381 179.933 205.485 180.453 205.485 181.026C205.485 181.415 205.437 181.833 205.325 182.289L207.147 182.736C207.292 182.144 207.362 181.573 207.362 181.026C207.364 179.949 207.091 178.976 206.678 178.113C206.054 176.813 205.137 175.733 204.261 174.672C203.382 173.613 202.543 172.576 201.993 171.437C200.72 168.805 200.031 165.875 200.034 162.956C200.034 161.833 200.136 160.71 200.342 159.606C200.608 158.204 201.034 156.813 201.505 155.406C201.977 153.999 202.494 152.573 202.921 151.094C203.786 148.095 204.202 144.996 204.202 141.898C204.202 135.932 202.669 129.968 199.87 124.686C197.072 119.405 193.006 114.806 187.919 111.59C186.167 110.486 184.328 109.518 182.701 108.425C181.886 107.881 181.128 107.304 180.455 106.672C179.78 106.037 179.195 105.348 178.718 104.57C178.171 103.681 177.807 102.745 177.574 101.762C177.341 100.778 177.241 99.7434 177.241 98.6713C177.241 96.9506 177.496 95.1307 177.831 93.2787C178.163 91.4294 178.579 89.5478 178.876 87.6931C179.203 85.6481 179.367 83.5817 179.367 81.5152C179.364 74.7932 177.659 68.0766 174.424 62.1801C171.889 57.5541 168.793 54.2654 165.234 51.5906C161.677 48.9157 157.67 46.8412 153.253 44.5604C146.119 40.8777 138.542 37.104 130.667 34.2442C122.793 31.3871 114.615 29.4413 106.285 29.4413C105.457 29.4413 104.624 29.4601 103.793 29.5003C96.6285 29.8433 89.4964 31.5908 83.2863 34.9357C77.079 38.2806 71.7962 43.2364 68.4058 49.953C65.7524 55.2062 64.7392 61.0571 64.7392 66.8946C64.7392 69.3872 64.9242 71.8772 65.2458 74.3242C65.4575 75.9297 65.5915 77.5378 65.5915 79.1164C65.5915 81.0918 65.3825 83.0161 64.8679 84.8387C64.3506 86.6586 63.5304 88.3766 62.2922 89.9633C60.7511 91.9386 58.7972 93.5574 56.7254 95.1388C54.6563 96.7228 52.4745 98.2639 50.5126 100.124C48.0736 102.442 46.0474 105.278 44.6242 108.387C43.201 111.499 42.3809 114.887 42.3809 118.312C42.3809 118.687 42.3916 119.062 42.4103 119.438C42.5899 122.799 43.3538 125.814 44.3937 128.698C45.4336 131.584 46.7469 134.342 48.0442 137.224C48.9393 139.21 49.3307 141.391 49.3307 143.621C49.3307 145.503 49.0519 147.414 48.5695 149.252C47.5188 153.278 45.5462 157.073 43.5494 160.887L45.2112 161.756Z" fill="#192C4A"/>
<path d="M139.07 200.895C147.368 205.588 156.049 209.699 165.231 212.342C172.479 214.427 180.136 215.582 187.574 214.333C195.008 213.084 202.218 209.193 206.314 202.862C213.154 192.286 209.696 177.759 202.312 167.553C199.696 163.934 196.534 160.426 195.732 156.036C194.853 151.244 196.97 146.481 197.879 141.694C199.436 133.493 197.249 124.656 192.047 118.13C186.689 111.408 178.284 106.91 175.161 98.899C172.176 91.2416 174.918 82.614 174.148 74.4313C173.358 66.0101 168.493 58.1865 162.599 52.3436C155.151 44.9596 145.258 42.1025 137.421 35.6673C132.187 31.3656 126.097 28.8006 119.367 27.9617C99.3783 25.4691 75.519 35.209 70.2792 56.2514C68.0037 65.3856 70.9198 75.9108 67.0147 84.5813C64.3586 90.4778 58.8427 94.5035 54.8733 99.612C49.143 106.993 46.7683 116.883 48.5265 126.063C49.5772 131.541 52.0242 136.953 51.1987 142.471C50.0918 149.882 43.4743 155.178 40.5824 162.09C36.6344 171.53 40.5154 183.015 48.1084 189.871C55.7015 196.73 66.2589 199.509 76.4892 199.726C82.2196 199.847 87.9659 199.238 93.5435 197.914C101.761 195.966 109.946 192.372 118.536 192.666C127.172 192.961 131.729 196.746 139.07 200.895Z" fill="#192C4A"/>
<path d="M141.505 176.748C148.369 178.244 155.96 175.738 160.586 170.45C165.212 165.165 166.686 157.309 164.292 150.702C161.398 142.72 153.612 137.132 151.261 128.974C148.664 119.955 149.967 110.456 143.022 103.142C138.726 98.6175 132.99 95.7309 127.171 93.4795C120.468 90.8824 113.484 89.0116 106.378 87.9046C103.32 87.4276 99.927 87.1622 97.3861 88.9312C95.1857 90.4616 94.1592 93.1632 93.4275 95.7443C92.1704 100.18 91.42 104.758 91.2002 109.365C90.9402 114.782 91.3637 120.44 89.1579 125.393C86.0247 132.436 78.2092 136.58 75.2583 143.701C72.2403 150.981 75.3949 159.836 81.4067 164.937C87.4157 170.035 95.6708 171.828 103.545 171.546C108.906 171.356 114.389 170.321 119.736 171.174C127.118 172.353 134.223 175.164 141.505 176.748Z" fill="#16273D"/>
<path d="M186.72 276.721C180.941 275.861 178.106 268.442 175.286 262.111C170.942 252.352 167.211 242.055 163.724 231.913C158.776 217.534 155.597 202.589 152.429 187.69C150.639 179.263 145.289 160.434 152.756 153.694C163.71 157.371 171.043 160.965 176.969 166.478C184.399 173.388 188.207 182.158 191.979 191.399C196.728 203.044 201.316 214.821 204.377 227.073C206.765 236.641 209.513 246.762 208.746 256.831C207.926 267.603 202.799 279.109 186.72 276.721Z" fill="white"/>
<path d="M51.0377 276.721C55.9103 273.497 59.6545 268.442 62.4715 262.111C66.8161 252.353 70.5469 242.055 74.0366 231.913C78.9816 217.534 82.1603 202.589 85.3284 187.69C87.1187 179.263 92.7794 160.619 85.3123 153.881C74.3582 157.559 66.7169 160.965 60.7883 166.478C53.3587 173.388 49.5501 182.158 45.7817 191.399C41.0297 203.045 36.4412 214.821 33.383 227.073C30.9923 236.641 27.6795 254.285 28.4461 264.355C29.2662 275.126 33.8682 288.088 51.0377 276.721Z" fill="white"/>
<path d="M152.443 93.4851C160.349 89.9204 161.874 100.604 160.167 105.728C159.462 107.846 158.449 109.885 156.972 111.561C154.983 113.812 149.516 117.385 146.744 114.538C145.487 113.246 145.501 111.22 145.6 109.419C145.857 104.592 147.085 95.9 152.443 93.4851Z" fill="#E57E67"/>
<path d="M85.6894 93.4851C77.7828 89.9204 76.2551 100.604 77.9624 105.728C78.6673 107.846 79.6831 109.885 81.1599 111.561C83.1486 113.812 88.6162 117.385 91.3876 114.538C92.6446 113.246 92.6285 111.22 92.532 109.419C92.2721 104.592 91.0472 95.9 85.6894 93.4851Z" fill="#E57E67"/>
<path d="M193.424 310.422C187.914 255.217 182.476 222.929 176.488 184.21C175.293 176.478 172.961 168.175 169.702 164.216C164.631 158.057 157.282 155.382 150.058 152.68C141.192 149.368 131.945 146.819 122.452 146.326C121.487 146.277 120.528 146.253 119.566 146.248V146.049L119.472 146.245H119.442H119.413L119.319 146.049V146.248H119.279H119.236V146.049L119.142 146.245H119.113H119.083L118.989 146.049V146.248C118.027 146.253 117.068 146.277 116.105 146.326C106.609 146.819 97.3653 149.368 88.4965 152.68C81.2733 155.382 73.9241 158.057 68.8532 164.216C65.594 168.175 63.2622 176.478 62.0669 184.21C56.0793 222.929 50.6411 255.217 45.1306 310.422C41.8017 343.791 37.776 392.316 39.3788 394.616C42.4477 399.016 77.781 400.04 82.5276 400.488C90.319 401.22 98.156 401.273 105.982 401.327C110.405 401.356 114.84 401.359 119.279 401.327C123.715 401.359 128.15 401.356 132.573 401.327C140.399 401.273 148.236 401.22 156.027 400.488C160.777 400.04 196.107 399.016 199.176 394.616C200.779 392.316 196.753 343.791 193.424 310.422Z" fill="white"/>
<path d="M149.81 150.04L119.218 137.851V137.435L88.1807 149.799L118.982 245.4L149.81 150.04Z" fill="#7CCEDC"/>
<path d="M162.925 154.64C161.853 158.223 160.77 161.804 159.669 165.377C158.575 168.952 157.463 172.522 156.351 176.092C155.241 179.665 154.107 183.227 152.987 186.794L149.583 197.483L149.479 197.813L149.13 197.861L143.783 198.617L138.433 199.362L138.613 198.255C141.175 199.52 143.746 200.774 146.302 202.05L146.839 202.318L146.571 202.851C144.319 207.303 142.084 211.766 139.819 216.212C137.554 220.661 135.298 225.111 133.011 229.549C130.738 233.99 128.439 238.421 126.139 242.851C123.832 247.276 121.521 251.701 119.168 256.102C121.293 251.586 123.462 247.091 125.63 242.596C127.809 238.104 129.991 233.615 132.196 229.139C134.386 224.655 136.608 220.187 138.822 215.714C141.036 211.24 143.279 206.783 145.506 202.315L145.775 203.117C143.21 201.857 140.655 200.576 138.093 199.305L136.38 198.456L138.273 198.198L143.625 197.475L148.977 196.762L148.527 197.14L152.057 186.491C153.25 182.948 154.424 179.399 155.627 175.859C156.828 172.316 158.026 168.775 159.243 165.237C160.454 161.699 161.682 158.167 162.925 154.64Z" fill="#DCE1F9"/>
<path fill-rule="evenodd" clip-rule="evenodd" d="M97.1428 144.999C91.9153 148.483 89.5386 154.569 91.7795 159.529L98.1605 173.65L98.1633 173.657C98.5487 173.06 99.1076 172.562 99.8074 172.246C100.257 172.043 100.725 171.933 101.188 171.909L94.9486 158.1C93.3717 154.61 94.8791 150.385 98.3325 147.766L97.1428 144.999ZM97.8155 177.021C97.7971 177.051 97.7783 177.08 97.7591 177.11L99.0682 180.154C99.4298 179.839 99.76 179.502 100.056 179.146C99.1201 178.828 98.3181 178.145 97.8839 177.183C97.8597 177.129 97.8369 177.075 97.8155 177.021Z" fill="#0A1033"/>
<path d="M97.4871 177.956C96.6287 176.053 97.5267 173.761 99.5392 172.852C101.552 171.943 103.864 172.786 104.723 174.688C105.581 176.591 104.683 178.883 102.671 179.792C100.658 180.701 98.3455 179.858 97.4871 177.956Z" fill="#0A1033" stroke="#8B91AB" stroke-width="0.879848"/>
<path d="M154.637 186.698L156.992 187.292L154.028 199.055C153.375 201.646 150.655 203.222 147.992 202.552L146.763 202.242L147.332 199.982L148.561 200.292C149.961 200.645 151.364 199.832 151.707 198.47L154.671 186.707L154.637 186.698Z" fill="#0A1033"/>
<path d="M146.815 198.863C145.306 198.483 143.848 199.112 143.556 200.268C143.265 201.424 144.252 202.669 145.76 203.049C147.268 203.429 148.727 202.8 149.018 201.644C149.309 200.488 148.323 199.243 146.815 198.863Z" fill="#0A1033"/>
<path d="M131.185 180.79L133.507 181.374L130.543 193.137C130.2 194.499 131.05 195.88 132.449 196.232L133.678 196.542L133.101 198.835L131.872 198.525C129.209 197.854 127.56 195.177 128.213 192.585L131.185 180.79Z" fill="#0A1033"/>
<path d="M134.629 195.792C133.121 195.412 131.662 196.041 131.371 197.197C131.079 198.353 132.066 199.599 133.574 199.979C135.082 200.359 136.541 199.73 136.833 198.574C137.124 197.417 136.137 196.172 134.629 195.792Z" fill="#0A1033"/>
<path d="M133.829 183.84L134.912 180.075C136.367 175.01 141.903 173.21 147.046 174.688C152.189 176.166 154.942 180.349 153.487 185.414L152.404 189.179L157.141 190.541L158.223 186.775C160.005 180.577 157.178 174.101 151.78 170.962C150.773 170.384 150.263 169.228 150.579 168.128L151.815 163.829L147.417 162.565L146.152 166.964C145.846 168.03 144.833 168.749 143.698 168.748C137.588 168.723 131.952 172.659 130.209 178.723L129.127 182.489L133.829 183.84Z" fill="#8B91AB"/>
<path fill-rule="evenodd" clip-rule="evenodd" d="M141.595 146.915C146.534 149.549 149.352 154.578 148.143 159.386L147.266 162.873L151.819 164.022L152.696 160.535C154.363 153.908 150.287 146.895 143.319 143.408L141.595 146.915Z" fill="#0A1033"/>
<path d="M145.88 137.435C145.88 155.983 133.841 171.016 118.99 171.016C104.139 171.016 92.0991 155.983 92.0991 137.435C92.0991 118.886 104.139 103.852 118.99 103.852C133.841 103.852 145.88 118.886 145.88 137.435Z" fill="#5EB0BC"/>
<path d="M141.399 137.435C141.399 152.889 131.367 165.419 118.989 165.419C106.615 165.419 96.5801 152.889 96.5801 137.435C96.5801 121.978 106.615 109.448 118.989 109.448C131.367 109.448 141.399 121.978 141.399 137.435Z" fill="#F89D7D"/>
<path d="M75.1201 154.64C76.3611 158.167 77.5913 161.699 78.8001 165.237C80.0169 168.775 81.2176 172.316 82.4157 175.859C83.6191 179.399 84.7957 182.948 85.9884 186.491L89.5183 197.14L89.0653 196.762L94.4204 197.475L99.7701 198.198L101.665 198.456L99.9523 199.305C97.3901 200.576 94.8358 201.857 92.2681 203.117L92.5362 202.315C94.7634 206.783 97.0068 211.24 99.2206 215.714C101.435 220.187 103.656 224.655 105.849 229.139C108.055 233.615 110.234 238.104 112.413 242.596C114.584 247.091 116.752 251.586 118.877 256.102C116.524 251.701 114.214 247.276 111.903 242.851C109.604 238.421 107.307 233.99 105.034 229.549C102.748 225.111 100.488 220.661 98.2263 216.212C95.9588 211.766 93.7262 207.303 91.4748 202.851L91.2068 202.318L91.7428 202.05C94.2998 200.774 96.8674 199.52 99.4297 198.255L99.6119 199.362L94.2622 198.617L88.9152 197.861L88.5668 197.813L88.4622 197.483L85.0584 186.794C83.938 183.227 82.8016 179.665 81.6947 176.092C80.5824 172.522 79.4701 168.952 78.3739 165.377C77.275 161.804 76.1922 158.223 75.1201 154.64Z" fill="#DCE1F9"/>
<path d="M92.59 252.149C92.8152 243.915 94.6994 235.724 98.114 228.228C98.457 227.466 98.8537 226.676 99.5559 226.228C100.44 225.663 101.579 225.781 102.619 225.925C111.207 227.11 119.781 228.383 128.339 229.766C141.252 231.849 154.064 234.481 166.907 236.968C168.438 237.263 169.997 237.56 171.544 237.359C178.046 236.504 177.968 228.15 178.049 223.261C178.223 212.326 178.588 202.039 177.832 191.128C182.921 195.628 186.853 199.683 190.399 205.478C192.543 208.978 194.09 212.806 195.524 216.649C201.517 232.696 206.866 250.318 208.137 267.445C208.879 277.436 197.298 284.493 188.711 284.405C174.672 284.258 132.405 274.295 118.966 270.465C110.178 267.962 102.954 266.115 94.5252 262.585C94.0106 262.371 93.4665 262.127 93.1717 261.653C92.9304 261.264 92.8983 260.787 92.8795 260.329C92.8179 258.908 92.5525 253.572 92.59 252.149Z" fill="#DCE1F9"/>
<path d="M145.117 260.181C144.744 251.953 142.713 243.797 139.164 236.362C138.805 235.609 138.397 234.826 137.687 234.39C136.792 233.843 135.656 233.98 134.618 234.143C117.69 236.791 70.8667 244.507 55.2009 251.449C45.5655 255.721 30.5536 265.276 29.8648 277.557C29.3019 287.56 41.0118 294.408 49.5938 294.164C63.6275 293.762 105.707 283.041 119.076 278.972C127.819 276.311 135.004 274.333 143.369 270.653C143.881 270.428 144.423 270.173 144.707 269.696C144.943 269.302 144.967 268.822 144.977 268.364C145.012 266.944 145.181 261.602 145.117 260.181Z" fill="#DCE1F9"/>
<path d="M84.6501 86.498C84.7895 79.717 85.816 73.2979 87.6385 67.9803C95.4969 45.0403 124.331 39.7576 141.406 56.5492C160.449 75.2759 153.987 118.998 133.43 134.203C127.933 138.266 118.962 139.904 112.385 138.039C92.4817 132.394 84.2213 107.682 84.6501 86.498Z" fill="#F89D7D"/>
<path d="M84.6844 62.3731C90.873 38.9265 119.254 31.5854 137.493 47.1065C140.403 49.5831 142.422 52.5367 144.496 55.6966C146.257 58.3742 148.707 60.4031 150.261 63.3487C151.856 66.3746 152.85 69.7196 153.18 73.1234C153.413 75.5276 154.212 79.9473 153.885 82.3219C153.483 85.2434 152.925 90.6494 152.572 93.5762C152.467 90.25 151.036 82.5444 150.033 79.3683C148.822 75.533 146.622 72.4534 143.588 69.8482C142.138 68.6046 140.54 67.5539 139.031 66.388C138.565 66.0262 136.442 64.1447 135.33 62.2284C128.074 71.7404 115.791 75.5196 104.711 78.2641C95.416 80.5664 85.4 91.4508 84.8077 93.2492C84.6897 90.9683 83.2505 67.8086 84.6844 62.3731Z" fill="#E57E67"/>
<path d="M84.8055 93.2492C84.1863 92.5684 82.9829 88.5374 82.6559 87.551C81.7098 84.6966 80.5171 82.2764 79.9918 79.3013C78.783 72.4266 77.3438 72.1586 77.3438 65.1659C77.4831 56.0746 81.8733 50.7302 88.732 45.2331C94.9608 40.2425 102.492 36.8681 110.38 35.6218C111.959 35.3725 113.548 35.2091 115.143 35.134C117.534 35.0215 119.967 35.1045 122.256 35.8068C123.969 36.3294 125.558 37.1844 127.137 38.0367C129.257 39.1785 131.385 40.3283 133.328 41.7515C136.502 44.0752 139.257 47.4898 142.784 49.2427C146.732 51.2073 150.731 52.207 154.145 55.2169C157.04 57.7685 159.144 61.1348 160.65 64.7049C162.457 68.9852 160.471 72.0433 159.953 76.6104C159.527 80.3761 159.929 84.0373 158.276 87.551C156.729 90.8397 152.569 93.5762 152.569 93.5762C152.569 93.5762 152.167 86.8649 152.047 86.0367C151.725 83.8818 151.355 80.4592 149.87 75.868C148.434 71.384 145.593 68.6368 141.897 65.9003C140.415 64.804 138.946 63.6676 137.697 62.2954C136.247 60.7006 135.695 59.0174 134.824 57.4388C133.197 61.0678 130.442 63.9196 126.963 65.9887C120.975 69.5453 114.159 71.2419 107.587 73.3593C101.321 75.3775 93.409 77.8701 89.8202 83.8497C86.2957 89.714 84.8055 93.2492 84.8055 93.2492Z" fill="#192C4A"/>
<path d="M146.476 84.0023C146.061 85.6131 142.019 85.9669 137.449 84.7903C132.879 83.6136 129.51 81.3542 129.926 79.7407C130.341 78.1299 134.383 77.7761 138.953 78.9528C143.522 80.1294 146.892 82.3888 146.476 84.0023Z" fill="#192C4A"/>
<path d="M124.267 39.811C124.605 41.4915 124.683 43.2256 124.519 44.9356C124.353 46.6509 123.932 48.3368 123.337 49.953C122.739 51.5718 121.949 53.1183 121.013 54.5683C120.078 56.021 118.992 57.3798 117.784 58.6181C117.181 59.2399 116.543 59.8269 115.878 60.3817C115.197 60.915 114.535 61.4752 113.817 61.9576L113.289 62.3329L113.024 62.5205L112.753 62.6947L111.659 63.3943C111.295 63.6248 110.917 63.8311 110.544 64.0509L109.984 64.3779L109.416 64.6834C106.382 66.3318 103.201 67.6531 100.049 68.9879C98.4727 69.6525 96.9021 70.3226 95.3476 71.0221L94.1898 71.5609L93.6135 71.8289L93.0426 72.113C92.662 72.3033 92.2788 72.4856 91.9008 72.6812L90.7805 73.2816C90.3999 73.4719 90.0515 73.7024 89.6897 73.9168L89.1483 74.2411C88.9687 74.351 88.7864 74.4555 88.6176 74.5815C87.9288 75.0666 87.2212 75.5222 86.5699 76.061C86.2402 76.3236 85.8998 76.5729 85.5782 76.8463L84.624 77.6771C84.4659 77.8165 84.3024 77.9532 84.147 78.0953L83.6887 78.5348L82.772 79.4112C80.384 81.81 78.2103 84.434 76.1814 87.1624C74.1578 89.9016 72.2763 92.748 70.435 95.6266L69.7462 96.7067L69.4004 97.2481L69.0761 97.7895L68.4302 98.8723L67.8459 99.9899C67.7494 100.178 67.6449 100.36 67.5591 100.553L67.2964 101.126C67.1249 101.51 66.9373 101.888 66.7792 102.279C66.4763 103.061 66.1466 103.839 65.9001 104.643C64.8065 107.832 64.2437 111.188 64.0855 114.552C63.9837 117.918 64.3 121.308 65.1791 124.565C65.3801 125.385 65.6293 126.192 65.8947 126.999C66.16 127.805 66.4468 128.609 66.7282 129.416C67.2938 131.03 67.87 132.656 68.3337 134.329C68.7974 135.996 69.1431 137.725 69.1967 139.488C69.2557 141.247 68.9689 143.042 68.2935 144.677C67.9585 145.495 67.5377 146.269 67.0713 147.012C66.5889 147.741 66.0743 148.446 65.5168 149.108C64.4099 150.44 63.2037 151.665 62.0512 152.919C61.4696 153.543 60.9068 154.181 60.3734 154.841L59.9794 155.336L59.5962 155.848C59.3389 156.189 59.0923 156.537 58.8403 156.883C57.846 158.269 56.9106 159.7 56.01 161.153C55.1095 162.605 54.2438 164.082 53.3968 165.57C52.5445 167.054 51.7056 168.547 50.8667 170.04C51.6547 168.518 52.4373 166.995 53.2387 165.481C54.0454 163.969 54.8736 162.471 55.7393 160.989C56.605 159.51 57.5056 158.049 58.4705 156.626C58.7117 156.269 58.9529 155.915 59.2022 155.564L59.5747 155.039L59.966 154.519C60.4914 153.833 61.0462 153.171 61.6144 152.528C62.7481 151.236 63.9301 149.997 64.9834 148.673C65.5168 148.017 65.9992 147.325 66.4495 146.62C66.881 145.902 67.2643 145.162 67.5645 144.388C68.1621 142.841 68.4114 141.18 68.3337 139.518C68.2613 137.856 67.9102 136.202 67.4358 134.584C66.4951 131.335 65.0611 128.205 64.1659 124.838C63.2332 121.483 62.8768 117.988 62.9545 114.511C63.0912 111.038 63.6755 107.572 64.7904 104.273C65.0451 103.442 65.3801 102.638 65.6937 101.826C65.8572 101.421 66.0501 101.03 66.2243 100.633L66.4951 100.038C66.5835 99.8399 66.6934 99.6496 66.7899 99.4566L67.3956 98.296L68.0603 97.1703L68.3927 96.6102L68.7384 96.0661L69.4272 94.9833C71.2846 92.0967 73.1902 89.2342 75.2433 86.4682C77.3097 83.713 79.5129 81.0408 81.9787 78.6072L82.9248 77.7173L83.3992 77.2724C83.56 77.125 83.7262 76.9883 83.8897 76.8463L84.8787 75.9993C85.2137 75.7233 85.5648 75.4659 85.9079 75.1979C86.5806 74.6512 87.3177 74.1821 88.0333 73.689C88.2102 73.5603 88.4005 73.4531 88.5881 73.3432L89.1509 73.0082C89.5262 72.7911 89.8961 72.5526 90.282 72.3623L91.4318 71.7592C91.8151 71.5636 92.2064 71.3813 92.5923 71.191L93.1766 70.9096L93.7636 70.6415C94.1549 70.4647 94.5462 70.2824 94.9402 70.1109C96.5189 69.4221 98.1082 68.7734 99.6949 68.1275C102.866 66.841 106.031 65.5572 109.052 63.9946L109.617 63.7025L110.175 63.3916C110.542 63.1825 110.92 62.9869 111.282 62.7671L112.367 62.0997L112.638 61.9335L112.9 61.7566L113.426 61.3975C114.139 60.9365 114.795 60.4004 115.473 59.8912C116.135 59.3632 116.765 58.7977 117.371 58.208C118.585 57.0261 119.684 55.7235 120.638 54.3217C121.595 52.92 122.412 51.419 123.042 49.8404C123.672 48.2617 124.128 46.608 124.34 44.9168C124.562 43.2283 124.546 41.5022 124.267 39.811Z" fill="#79BBD5"/>
<path d="M92.563 84.0023C92.9784 85.6131 97.0202 85.9669 101.59 84.7903C106.162 83.6136 109.529 81.3542 109.113 79.7407C108.701 78.1299 104.659 77.7761 100.086 78.9528C95.5166 80.1294 92.1475 82.3888 92.563 84.0023Z" fill="#192C4A"/>
<path d="M113.123 109.88C113.257 109.204 113.573 108.559 113.986 107.985C114.404 107.414 114.921 106.902 115.511 106.495C116.1 106.085 116.752 105.758 117.44 105.53C118.132 105.299 118.866 105.192 119.606 105.198C120.346 105.211 121.099 105.342 121.788 105.653C122.471 105.953 123.058 106.366 123.594 106.806C124.136 107.245 124.65 107.741 125.066 108.32C125.476 108.894 125.795 109.564 125.846 110.255C125.54 109.636 125.111 109.14 124.626 108.711C124.141 108.28 123.608 107.913 123.05 107.57C122.487 107.229 121.93 106.91 121.359 106.701C121.217 106.653 121.075 106.602 120.933 106.564L120.49 106.473C120.346 106.439 120.193 106.436 120.043 106.414C119.893 106.39 119.74 106.396 119.587 106.393L119.359 106.385C119.284 106.39 119.207 106.396 119.132 106.401C118.979 106.414 118.823 106.412 118.673 106.444C118.521 106.465 118.365 106.484 118.215 106.511C118.062 106.548 117.912 106.583 117.759 106.615C117.156 106.774 116.567 107.004 116.004 107.293C115.436 107.58 114.908 107.95 114.422 108.376C113.935 108.805 113.498 109.301 113.123 109.88Z" fill="#E57E67"/>
<path d="M140.364 98.6123C145.28 93.9889 137.274 89.0761 132.369 91.7027C129.209 93.3966 128.649 97.5885 131.873 99.5182C133.045 100.218 134.495 100.459 135.891 100.373C137.547 100.271 139.206 99.7005 140.364 98.6123Z" fill="white"/>
<path d="M139.658 94.9456C139.658 97.1407 137.878 98.9204 135.683 98.9204C133.485 98.9204 131.706 97.1407 131.706 94.9456C131.706 92.7478 133.485 90.9682 135.683 90.9682C137.878 90.9682 139.658 92.7478 139.658 94.9456Z" fill="#192C4A"/>
<path d="M135.17 94.1392C135.17 94.8709 134.578 95.4633 133.844 95.4633C133.112 95.4633 132.52 94.8709 132.52 94.1392C132.52 93.4075 133.112 92.8125 133.844 92.8125C134.578 92.8125 135.17 93.4075 135.17 94.1392Z" fill="white"/>
<path d="M128.26 95.23C128.802 93.8283 129.892 92.6409 131.206 91.8074C132.524 90.9765 134.095 90.4941 135.695 90.478C137.295 90.4593 138.877 90.9069 140.214 91.7109C141.543 92.515 142.661 93.6809 143.229 95.0746C142.037 94.1767 140.833 93.4959 139.568 93.0403C138.308 92.582 137.006 92.3461 135.714 92.3568C134.425 92.3702 133.128 92.6329 131.876 93.118C130.619 93.6005 129.432 94.3054 128.26 95.23Z" fill="#192C4A"/>
<path d="M106.284 115.709C108.342 116.966 110.451 117.92 112.633 118.62C114.807 119.317 117.042 119.77 119.245 119.826C119.521 119.845 119.795 119.826 120.071 119.829C120.344 119.826 120.623 119.796 120.899 119.783C121.175 119.764 121.454 119.732 121.73 119.708C122.009 119.673 122.285 119.628 122.563 119.595C123.676 119.427 124.783 119.175 125.879 118.858C126.972 118.539 128.052 118.148 129.108 117.679C130.17 117.213 131.196 116.658 132.212 115.999C131.537 117.006 130.644 117.869 129.669 118.617C128.69 119.365 127.613 119.984 126.484 120.496C125.359 121.005 124.171 121.394 122.955 121.665C122.646 121.729 122.341 121.785 122.03 121.841C121.719 121.884 121.411 121.933 121.097 121.967C120.781 121.992 120.467 122.026 120.151 122.034L119.671 122.048C119.513 122.056 119.355 122.053 119.197 122.045C116.651 121.978 114.204 121.3 111.979 120.233C110.87 119.695 109.814 119.051 108.846 118.301C107.881 117.545 106.994 116.693 106.284 115.709Z" fill="#EB4447"/>
<path d="M98.482 98.6123C93.5665 93.9889 101.572 89.0761 106.477 91.7027C109.637 93.3966 110.197 97.5885 106.973 99.5182C105.802 100.22 104.352 100.459 102.955 100.373C101.299 100.271 99.6399 99.7005 98.482 98.6123Z" fill="white"/>
<path d="M99.1821 94.9456C99.1821 97.1407 100.964 98.9204 103.16 98.9204C105.355 98.9204 107.137 97.1407 107.137 94.9456C107.137 92.7478 105.355 90.9682 103.16 90.9682C100.964 90.9682 99.1821 92.7478 99.1821 94.9456Z" fill="#192C4A"/>
<path d="M99.5127 94.1392C99.5127 94.8709 100.108 95.4633 100.839 95.4633C101.571 95.4633 102.163 94.8709 102.163 94.1392C102.163 93.4075 101.571 92.8125 100.839 92.8125C100.108 92.8125 99.5127 93.4075 99.5127 94.1392Z" fill="white"/>
<path d="M110.585 95.23C109.413 94.3054 108.226 93.6005 106.966 93.118C105.717 92.6329 104.42 92.3702 103.128 92.3568C101.839 92.3461 100.537 92.582 99.2769 93.0403C98.0118 93.4959 96.8057 94.1767 95.6157 95.0746C96.1839 93.6809 97.3016 92.515 98.631 91.7109C99.9657 90.9069 101.55 90.4593 103.15 90.478C104.75 90.4941 106.321 90.9765 107.639 91.8074C108.952 92.6409 110.043 93.8283 110.585 95.23Z" fill="#192C4A"/>
<path d="M91.5904 106.624C90.8159 108.797 92.6223 111.429 95.6295 112.501C98.6341 113.576 101.7 112.686 102.477 110.515C103.255 108.344 101.446 105.712 98.4384 104.638C95.4339 103.563 92.3677 104.453 91.5904 106.624Z" fill="#F37379"/>
<path d="M147.252 106.624C148.026 108.797 146.22 111.429 143.213 112.501C140.206 113.576 137.139 112.686 136.365 110.515C135.588 108.344 137.397 105.712 140.401 104.638C143.408 103.563 146.475 104.453 147.252 106.624Z" fill="#F37379"/>
<path d="M178.887 215.95L178.18 198.161C178.18 198.161 176.81 207.837 174.572 209.764C172.337 211.691 156.786 214.848 156.786 214.848L178.887 215.95Z" fill="#DCE1F9"/>
<path d="M93.994 225.502C91.5952 223.559 89.1643 221.656 86.736 219.75C84.5596 218.045 82.3646 216.327 79.8854 215.103C75.4255 212.899 70.3411 212.428 65.388 211.988C61.6357 211.658 57.7735 211.337 54.1713 212.433C53.7318 212.567 53.2413 212.776 53.1019 213.213C52.9277 213.754 53.3914 214.285 53.8631 214.599C55.0692 215.397 56.5433 215.655 57.9692 215.885C60.6441 216.319 63.3189 216.727 66.0018 217.11C59.7489 216.472 53.1797 215.88 47.4038 218.356C46.916 218.565 46.388 218.849 46.2299 219.356C45.7394 220.924 48.0149 221.366 49.087 221.495C51.9629 221.838 54.9379 221.808 57.6422 222.846C55.4444 222.988 53.2574 223.269 51.0945 223.687C49.5801 223.979 48.0363 224.357 46.7659 225.231C46.5166 225.4 46.2701 225.601 46.1468 225.877C45.8841 226.469 46.2969 227.163 46.8222 227.544C47.7308 228.201 48.9127 228.297 50.0304 228.372C52.8768 228.56 55.7125 228.769 58.5562 228.981C57.0713 229.152 55.5945 229.423 54.1445 229.793C52.9465 230.096 51.6948 230.511 50.8934 231.454C50.7728 231.597 50.6629 231.752 50.6308 231.934C50.5772 232.226 50.738 232.516 50.931 232.746C51.6493 233.601 52.8098 233.961 53.9248 234.03C55.0397 234.097 56.1547 233.92 57.2724 233.907C61.3463 233.861 64.6644 233.532 68.548 235.362C71.4239 236.721 74.0478 238.562 76.9103 239.951C79.3171 241.117 81.8687 241.953 84.4123 242.784C90.8341 244.882 97.2585 246.981 103.683 249.082C105.157 249.565 106.682 250.053 108.229 249.905C110.282 249.709 112.506 247.654 112.731 245.552C112.978 243.231 110.869 241.205 109.445 239.651C107.162 237.158 104.742 234.794 102.241 232.524C99.5689 230.096 96.8029 227.772 93.994 225.502Z" fill="#DCE1F9"/>
<path d="M93.3634 219.501C90.7261 217.895 88.0646 216.33 85.4032 214.768C83.0204 213.366 80.6136 211.956 77.9924 211.072C73.2805 209.485 68.1774 209.691 63.2109 209.919C59.4479 210.088 55.5777 210.284 52.1524 211.852C51.7342 212.045 51.2786 212.315 51.1955 212.768C51.0963 213.326 51.627 213.792 52.1363 214.041C53.4389 214.671 54.9317 214.73 56.3791 214.768C59.0861 214.843 61.7931 214.888 64.5001 214.912C58.2204 215.113 51.6297 215.4 46.2344 218.624C45.7788 218.895 45.2937 219.246 45.2052 219.772C44.9265 221.39 47.2422 221.524 48.3223 221.508C51.217 221.466 54.1625 221.039 56.9821 221.709C54.8219 222.144 52.6911 222.712 50.6032 223.417C49.1398 223.907 47.663 224.486 46.5185 225.521C46.2934 225.724 46.0763 225.955 45.9905 226.244C45.811 226.866 46.3122 227.499 46.8831 227.807C47.8694 228.338 49.054 228.276 50.1717 228.201C53.0208 228.008 55.8564 227.836 58.7028 227.668C57.2528 228.035 55.8269 228.501 54.4386 229.059C53.2914 229.522 52.1068 230.098 51.4367 231.141C51.3376 231.297 51.2491 231.465 51.2411 231.65C51.2277 231.948 51.426 232.213 51.6458 232.414C52.4713 233.167 53.672 233.368 54.787 233.288C55.8993 233.208 56.9821 232.883 58.0864 232.722C62.1174 232.135 65.3632 231.364 69.4559 232.663C72.4872 233.626 75.3336 235.102 78.3542 236.097C80.895 236.933 83.535 237.418 86.167 237.903C92.8113 239.128 99.4582 240.356 106.105 241.581C107.63 241.862 109.209 242.141 110.718 241.79C112.731 241.323 114.66 238.989 114.601 236.877C114.537 234.545 112.179 232.816 110.56 231.465C107.965 229.3 105.253 227.279 102.471 225.36C99.4984 223.309 96.4483 221.377 93.3634 219.501Z" fill="#F89D7D"/>
<path d="M92.59 245.076C92.8152 236.839 94.6994 228.651 98.114 221.152C98.457 220.393 98.8537 219.603 99.5559 219.155C100.44 218.59 101.579 218.708 102.619 218.85C111.207 220.037 119.781 221.31 128.339 222.69C141.252 224.776 154.064 227.408 166.907 229.892C168.438 230.19 169.997 230.487 171.544 230.283C178.046 229.431 177.968 221.077 178.049 216.188C178.223 205.253 177.467 194.326 176.714 183.414C181.801 187.915 186.853 192.61 190.399 198.402C192.543 201.903 194.09 205.73 195.524 209.576C201.517 225.62 206.866 243.242 208.137 260.372C208.879 270.363 197.298 277.42 188.711 277.329C174.672 277.182 132.405 267.22 118.966 263.392C110.178 260.889 102.954 259.042 94.5252 255.512C94.0106 255.298 93.4665 255.054 93.1717 254.58C92.9304 254.191 92.8983 253.711 92.8795 253.256C92.8179 251.835 92.5525 246.496 92.59 245.076Z" fill="white"/>
<path d="M141.777 224.985C144.396 223.352 147.044 221.76 149.686 220.171C158.054 215.14 168.534 214.773 178.073 215.44C178.126 216.823 178.113 218.201 178.169 219.587C178.322 223.481 178.445 227.544 176.824 231.087C176.392 232.028 175.835 232.929 175.071 233.626C174.323 234.309 173.409 234.778 172.484 235.185C169.807 236.373 167.274 236.965 164.403 237.043C161.52 237.123 158.266 237.914 155.695 239.214C152.385 240.886 148.888 242.256 145.468 243.684C140.507 245.756 134.538 246.164 129.26 247.193C127.738 247.49 126.162 247.785 124.648 247.45C122.632 247.003 120.678 244.69 120.716 242.578C120.756 240.243 123.096 238.49 124.701 237.123C127.274 234.931 129.965 232.883 132.726 230.937C135.68 228.857 138.711 226.893 141.777 224.985Z" fill="#DCE1F9"/>
<path d="M147.833 255.118C147.458 246.89 145.429 238.734 141.88 231.299C141.521 230.546 141.111 229.763 140.401 229.326C139.506 228.78 138.369 228.916 137.332 229.078C120.404 231.728 73.5831 239.444 57.9172 246.386C48.2792 250.656 33.2673 260.213 32.5785 272.494C32.0183 282.497 43.7255 289.345 52.3075 289.101C66.3438 288.699 108.423 277.978 121.79 273.906C130.532 271.245 137.721 269.27 146.086 265.587C146.595 265.365 147.136 265.11 147.423 264.633C147.656 264.239 147.68 263.759 147.691 263.301C147.726 261.88 147.898 256.539 147.833 255.118Z" fill="#DCE1F9"/>
<path d="M141.777 221.98C144.396 220.348 147.044 218.758 149.686 217.166C158.054 212.136 168.534 211.771 178.073 212.436C178.126 213.821 178.113 215.196 178.169 216.582C178.322 220.476 178.445 224.54 176.824 228.083C176.392 229.025 175.835 229.924 175.071 230.624C174.323 231.305 173.409 231.774 172.484 232.181C169.807 233.368 167.274 233.961 164.403 234.041C161.52 234.119 158.266 234.909 155.695 236.209C152.385 237.882 148.888 239.251 145.468 240.68C140.507 242.752 134.538 243.159 129.26 244.188C127.738 244.486 126.162 244.781 124.648 244.446C122.632 243.998 120.678 241.685 120.716 239.573C120.756 237.239 123.096 235.488 124.701 234.119C127.274 231.926 129.965 229.881 132.726 227.933C135.68 225.853 138.711 223.888 141.777 221.98Z" fill="#F89D7D"/>
<path d="M145.117 252.041C144.744 243.813 142.713 235.66 139.164 228.222C138.805 227.469 138.397 226.687 137.687 226.25C136.792 225.703 135.656 225.84 134.618 226.003C117.69 228.651 70.8667 236.37 55.2009 243.312C45.5655 247.582 30.5536 257.137 29.8648 269.417C29.3019 279.423 41.0118 286.268 49.5938 286.024C63.6275 285.625 105.707 274.901 119.076 270.832C127.819 268.171 135.004 266.193 143.369 262.513C143.881 262.288 144.423 262.033 144.707 261.556C144.943 261.162 144.967 260.682 144.977 260.227C145.012 258.804 145.181 253.462 145.117 252.041Z" fill="white"/>
<path d="M137.688 226.25C137.24 225.995 136.723 225.904 136.219 225.906C135.71 225.906 135.208 225.99 134.705 226.081L131.684 226.633L125.645 227.737L113.568 229.962C109.548 230.723 105.525 231.465 101.51 232.256C97.4924 233.033 93.4801 233.824 89.4758 234.66C85.4689 235.48 81.4727 236.343 77.4899 237.257C73.5017 238.158 69.5377 239.147 65.5978 240.222C64.6115 240.481 63.6359 240.779 62.6549 241.06L61.1942 241.513L60.4652 241.741L59.7388 241.98C59.2564 242.146 58.7686 242.293 58.2915 242.47L56.8576 242.99L55.4424 243.556C54.9707 243.751 54.5071 243.958 54.0407 244.164C50.3179 245.829 46.7291 247.807 43.3198 250.074C46.5763 247.587 50.1088 245.459 53.7914 243.633C54.2524 243.406 54.7161 243.183 55.1852 242.971L56.603 242.352L58.0369 241.781C58.514 241.586 58.9991 241.422 59.4815 241.24L60.2052 240.975L60.9369 240.728L62.3976 240.238C63.3786 239.932 64.3542 239.61 65.3378 239.324C67.3024 238.723 69.2831 238.182 71.2665 237.657C72.2555 237.394 73.2525 237.147 74.2442 236.89L77.2299 236.156C81.2181 235.204 85.225 234.33 89.2346 233.491C93.2496 232.674 97.2726 231.886 101.301 231.146C105.332 230.417 109.366 229.702 113.408 229.047C117.449 228.38 121.499 227.758 125.549 227.161C127.578 226.871 129.604 226.579 131.633 226.306L134.678 225.901C135.187 225.839 135.704 225.786 136.222 225.815C136.736 225.845 137.256 225.968 137.688 226.25Z" fill="#DCE1F9"/>
<path d="M70.9878 69.5321C71.7865 67.2888 73.0542 65.2089 74.5927 63.3649C76.1445 61.5236 77.9564 59.9128 79.9049 58.5083C81.848 57.0878 83.9332 55.8844 86.056 54.7775C88.1868 53.684 90.3765 52.7191 92.5743 51.7971C94.7774 50.8992 96.9752 50.012 99.1462 49.0766C101.325 48.1547 103.461 47.1523 105.541 46.0507C106.058 45.772 106.565 45.4744 107.08 45.1877C107.586 44.8902 108.079 44.5712 108.586 44.271C109.082 43.9548 109.561 43.6171 110.052 43.2901C110.532 42.9497 110.993 42.5852 111.467 42.2368C113.325 40.7894 115.01 39.1143 116.452 37.2221C115.23 39.2644 113.63 41.087 111.845 42.6871C111.387 43.0703 110.931 43.4643 110.465 43.8395C109.985 44.1987 109.511 44.5712 109.023 44.9196C108.53 45.2573 108.036 45.6004 107.53 45.9247C107.021 46.2383 106.514 46.5599 105.997 46.8628C105.477 47.1576 104.957 47.4605 104.432 47.7473C103.901 48.026 103.373 48.3048 102.84 48.5755L101.226 49.3608L99.6018 50.1139C97.4255 51.0895 95.2197 51.9874 93.0299 52.9014C90.8402 53.7965 88.6772 54.7453 86.5652 55.7879C84.4452 56.8198 82.3948 57.975 80.4383 59.2695C78.4897 60.5775 76.6458 62.0462 75.0296 63.7535C73.4054 65.4501 72.0304 67.3933 70.9878 69.5321Z" fill="#79BBD5"/>
</g>
</svg>
