<svg width="748" height="619" viewBox="0 0 748 619" fill="none" xmlns="http://www.w3.org/2000/svg">
<path d="M591.666 279.497H326.483C319.021 279.497 312.973 273.449 312.973 265.987V13.5105C312.973 6.0487 319.021 0 326.483 0H591.666C599.128 0 605.176 6.0487 605.176 13.5105V265.987C605.176 273.451 599.128 279.497 591.666 279.497Z" fill="#172578"/>
<path d="M479.231 40.4581H353.407C351.168 40.4581 349.352 38.6424 349.352 36.4029C349.352 34.1634 351.168 32.3481 353.407 32.3481H479.231C481.47 32.3481 483.286 34.1634 483.286 36.4029C483.286 38.6424 481.47 40.4581 479.231 40.4581Z" fill="#E1E9FF"/>
<path d="M438.782 60.6884H353.407C351.168 60.6884 349.352 58.8731 349.352 56.6336C349.352 54.3941 351.168 52.5784 353.407 52.5784H438.782C441.021 52.5784 442.837 54.3941 442.837 56.6336C442.837 58.8731 441.021 60.6884 438.782 60.6884Z" fill="#E1E9FF"/>
<path d="M374.734 93.8339H352.248C350.649 93.8339 349.352 92.5376 349.352 90.9377C349.352 89.3378 350.649 88.0415 352.248 88.0415H374.734C376.334 88.0415 377.63 89.3378 377.63 90.9377C377.63 92.5376 376.334 93.8339 374.734 93.8339Z" fill="#89AEFF"/>
<path d="M384.52 186.926V259.201C384.52 260.801 383.224 262.097 381.624 262.097H369.922C368.322 262.097 367.026 260.801 367.026 259.201V186.926C367.026 185.326 368.322 184.03 369.922 184.03H381.624C383.224 184.03 384.52 185.328 384.52 186.926Z" fill="#89AEFF"/>
<path d="M416.32 157.89V259.201C416.32 260.801 415.024 262.097 413.424 262.097H401.722C400.122 262.097 398.826 260.801 398.826 259.201V157.89C398.826 156.29 400.122 154.994 401.722 154.994H413.424C415.024 154.994 416.32 156.29 416.32 157.89Z" fill="#89AEFF"/>
<path d="M454.616 186.926V259.201C454.616 260.801 453.32 262.097 451.72 262.097H440.018C438.418 262.097 437.122 260.801 437.122 259.201V186.926C437.122 185.326 438.418 184.03 440.018 184.03H451.72C453.32 184.03 454.616 185.328 454.616 186.926Z" fill="#89AEFF"/>
<path d="M486.415 157.89V259.201C486.415 260.801 485.118 262.097 483.518 262.097H471.817C470.217 262.097 468.921 260.801 468.921 259.201V157.89C468.921 156.29 470.217 154.994 471.817 154.994H483.518C485.118 154.994 486.415 156.29 486.415 157.89Z" fill="#89AEFF"/>
<path d="M524.711 208.092V259.202C524.711 260.802 523.414 262.099 521.814 262.099H510.113C508.513 262.099 507.217 260.802 507.217 259.202V208.092C507.217 206.492 508.513 205.195 510.113 205.195H521.814C523.414 205.195 524.711 206.492 524.711 208.092Z" fill="#89AEFF"/>
<path d="M556.511 186.926V259.201C556.511 260.801 555.214 262.097 553.614 262.097H541.913C540.313 262.097 539.017 260.801 539.017 259.201V186.926C539.017 185.326 540.313 184.03 541.913 184.03H553.614C555.214 184.03 556.511 185.328 556.511 186.926Z" fill="#89AEFF"/>
<path d="M384.52 213.621V259.202C384.52 260.802 383.224 262.099 381.624 262.099H369.922C368.322 262.099 367.026 260.802 367.026 259.202V213.621C367.026 212.021 368.322 210.725 369.922 210.725H381.624C383.224 210.725 384.52 212.021 384.52 213.621Z" fill="#A8B2D6"/>
<path d="M416.32 194.513V259.203C416.32 260.802 415.024 262.099 413.424 262.099H401.722C400.122 262.099 398.826 260.802 398.826 259.203V194.513C398.826 192.913 400.122 191.617 401.722 191.617H413.424C415.024 191.617 416.32 192.913 416.32 194.513Z" fill="#A8B2D6"/>
<path d="M454.616 213.621V259.202C454.616 260.802 453.32 262.099 451.72 262.099H440.018C438.418 262.099 437.122 260.802 437.122 259.202V213.621C437.122 212.021 438.418 210.725 440.018 210.725H451.72C453.32 210.725 454.616 212.021 454.616 213.621Z" fill="#A8B2D6"/>
<path d="M486.415 194.513V259.203C486.415 260.802 485.118 262.099 483.518 262.099H471.817C470.217 262.099 468.921 260.802 468.921 259.203V194.513C468.921 192.913 470.217 191.617 471.817 191.617H483.518C485.118 191.617 486.415 192.913 486.415 194.513Z" fill="#A8B2D6"/>
<path d="M524.711 227.549V259.201C524.711 260.801 523.414 262.097 521.814 262.097H510.113C508.513 262.097 507.217 260.801 507.217 259.201V227.549C507.217 225.949 508.513 224.652 510.113 224.652H521.814C523.414 224.652 524.711 225.949 524.711 227.549Z" fill="#A8B2D6"/>
<path d="M556.511 213.621V259.201C556.511 260.801 555.214 262.097 553.614 262.097H541.913C540.313 262.097 539.017 260.801 539.017 259.201V213.621C539.017 212.021 540.313 210.725 541.913 210.725H553.614C555.213 210.725 556.511 212.021 556.511 213.621Z" fill="#A8B2D6"/>
<path d="M531.094 474.532L548.474 618.614H554.173L536.794 474.532H531.094Z" fill="#A8B2D6"/>
<path d="M607.895 474.53L609.849 490.734L625.273 618.612H630.974L615.474 490.1L613.596 474.53H607.895Z" fill="#A8B2D6"/>
<path d="M531.094 618.612H536.794L539.197 598.686L542.047 575.059L551.421 497.341L554.173 474.53H548.472L545.642 497.992L539.197 551.428L536.348 575.055L531.094 618.612Z" fill="#A8B2D6"/>
<path d="M454.292 618.612H459.993L473.481 506.779H473.483L477.372 474.53H471.671L467.706 507.402L454.292 618.612Z" fill="#A8B2D6"/>
<path d="M613.317 378.214H607.616V465.37H613.317V378.214Z" fill="#A8B2D6"/>
<path d="M535.862 378.214H530.163V465.37H535.862V378.214Z" fill="#A8B2D6"/>
<path d="M469.278 465.37H547.593C545.063 465.37 543.012 467.419 543.012 469.949C543.012 472.478 545.063 474.53 547.593 474.53H469.278C466.748 474.53 464.697 472.478 464.697 469.949C464.697 467.419 466.748 465.37 469.278 465.37Z" fill="#A8B2D6"/>
<path d="M543.012 469.949C543.012 467.419 545.063 465.37 547.593 465.37H607.496H615.212C617.742 465.37 619.793 467.419 619.793 469.949C619.793 472.478 617.742 474.53 615.212 474.53H607.496H547.593C545.063 474.53 543.012 472.478 543.012 469.949Z" fill="#ABC4FF"/>
<path d="M525.506 312.624H617.974C621.5 312.624 624.359 315.483 624.359 319.007V371.829C624.359 375.355 621.5 378.214 617.974 378.214H525.506C521.981 378.214 519.122 375.355 519.122 371.829V319.007C519.122 315.481 521.979 312.624 525.506 312.624Z" fill="#A8B2D6"/>
<path d="M607.895 474.53L609.849 490.734C611.909 490.502 613.791 490.29 615.472 490.102L613.594 474.53H607.895Z" fill="#AEC3FF"/>
<path d="M548.472 474.53L545.642 497.994C547.577 497.777 549.505 497.558 551.42 497.343L554.172 474.53H548.472Z" fill="#AEC3FF"/>
<path d="M467.706 507.402C469.545 507.205 471.475 506.998 473.482 506.779H473.483L477.372 474.53H471.671L467.706 507.402Z" fill="#AEC3FF"/>
<path d="M613.317 378.214H607.617V390.252L613.317 389.62V378.214Z" fill="#AEC3FF"/>
<path d="M530.163 378.214V398.825L535.862 398.193V378.214H530.163Z" fill="#AEC3FF"/>
<path d="M499.298 241.875C501.414 267.546 520.065 283.641 531.008 283.641C532.65 283.641 534.438 283.347 536.305 282.835V295.639H564.065V263.084C564.321 262.411 564.57 261.664 564.815 260.868C577.122 259.693 576.612 239.354 569.299 239.354C567.969 239.354 567.08 240.611 566.52 241.876L564.705 243.692V234.503C564.705 234.503 560.621 234.886 552.579 222.633C549.109 227.896 521.435 236.162 499.228 232.46C499.227 232.46 499.171 237.031 499.298 241.875Z" fill="#FCD4B7"/>
<path d="M532.924 197.616C552.068 197.616 555.898 207.827 555.898 207.827C564.067 207.827 576.575 222.761 569.043 239.352L569.004 239.391L564.703 243.692V234.503C564.703 234.503 560.62 234.886 552.578 222.633C549.108 227.896 521.434 236.162 499.227 232.46C499.227 232.46 499.169 237.031 499.297 241.875C499.297 241.88 499.297 241.885 499.297 241.89C491.002 217.894 507.652 197.616 532.924 197.616Z" fill="#311643"/>
<path d="M541.156 248.884C542.002 248.884 542.688 248.198 542.688 247.351V244.491C542.688 243.644 542.002 242.959 541.156 242.959C540.309 242.959 539.624 243.644 539.624 244.491V247.351C539.624 248.198 540.309 248.884 541.156 248.884Z" fill="#311643"/>
<path d="M512.757 248.884C513.604 248.884 514.289 248.198 514.289 247.351V244.491C514.289 243.644 513.604 242.959 512.757 242.959C511.91 242.959 511.225 243.644 511.225 244.491V247.351C511.225 248.198 511.91 248.884 512.757 248.884Z" fill="#311643"/>
<path d="M529.894 266.761C532.627 266.761 534.488 265.733 535.616 264.796C537.038 263.615 537.628 262.327 537.654 262.273C537.813 261.92 537.656 261.505 537.303 261.345C536.95 261.186 536.536 261.344 536.375 261.695C536.295 261.868 534.354 265.94 528.713 265.287C528.328 265.244 527.98 265.517 527.934 265.904C527.888 266.291 528.165 266.637 528.552 266.681C529.021 266.736 529.468 266.761 529.894 266.761Z" fill="#311643"/>
<path d="M502.025 241.709C502.025 247.626 506.84 252.44 512.756 252.44C518.538 252.44 523.263 247.844 523.477 242.114C526.687 240.297 529.544 241.601 530.431 242.105C530.642 247.84 535.368 252.44 541.152 252.44C547.07 252.44 551.883 247.626 551.883 241.709C551.883 235.791 547.068 230.977 541.152 230.977C535.625 230.977 531.061 235.178 530.484 240.555C529.084 239.912 526.43 239.145 523.424 240.56C522.849 235.18 518.283 230.977 512.754 230.977C506.84 230.977 502.025 235.791 502.025 241.709ZM531.827 241.709C531.827 236.564 536.011 232.38 541.156 232.38C546.3 232.38 550.484 236.564 550.484 241.709C550.484 246.851 546.3 251.037 541.156 251.037C536.011 251.037 531.827 246.853 531.827 241.709ZM503.429 241.709C503.429 236.564 507.613 232.38 512.757 232.38C517.902 232.38 522.086 236.564 522.086 241.709C522.086 246.851 517.902 251.037 512.757 251.037C507.613 251.037 503.429 246.853 503.429 241.709Z" fill="white"/>
<path d="M536.305 295.639V282.835C542.583 281.109 549.729 276.883 555.1 272.853L536.305 295.639Z" fill="#F9AFAB"/>
<path d="M457.433 514.521L463.229 513.727L468.717 468.22H463.016L457.433 514.521Z" fill="#EBEDF4"/>
<path d="M472.826 340.618L467.792 350.269H494.623L472.826 340.618Z" fill="#FCD4B7"/>
<path d="M524.217 593.45V614.227C524.217 616.649 522.252 618.612 519.829 618.612H460.899C460.339 618.612 459.884 618.158 459.884 617.598V613.769C459.884 611.921 460.961 610.241 462.641 609.473L496.716 593.448H524.217V593.45Z" fill="#020202"/>
<path d="M524.217 581.63L524.203 593.45H496.718L494.817 581.63H524.217Z" fill="#FCD4B7"/>
<path d="M536.354 283.562L499.04 300.417C493.91 302.734 489.734 306.75 487.22 311.788L472.828 340.617L494.624 350.267L492.819 413.992H601.437L596.695 354.477L616.338 354.604V322.04C616.338 311.954 610.278 302.857 600.97 298.97L564.067 283.561C564.065 283.562 547.942 294.143 536.354 283.562Z" fill="#C4EDF6"/>
<path d="M527.424 287.439C533.314 292.375 540.678 295.062 548.453 295.062C556.64 295.062 564.71 291.795 570.743 286.352L569.556 285.856C563.781 290.923 556.205 293.939 548.452 293.939C541.132 293.939 534.191 291.474 528.579 286.937L527.424 287.439Z" fill="white"/>
<path d="M466.386 593.45V614.227C466.386 616.649 464.421 618.612 461.998 618.612H403.068C402.506 618.612 402.053 618.158 402.053 617.598V613.769C402.053 611.921 403.13 610.241 404.81 609.473L438.885 593.448H466.386V593.45Z" fill="#020202"/>
<path d="M466.386 581.63L466.37 593.45H438.887L436.985 581.63H466.386Z" fill="#FCD4B7"/>
<path d="M543.608 413.994V415.104C543.63 443.015 521.009 465.653 493.096 465.653H469.631L466.386 581.626H436.985L415.307 443.347C412.889 427.927 424.812 413.992 440.419 413.992H543.608V413.994Z" fill="#172578"/>
<path d="M414.997 439.472C417.528 443.176 421.788 445.607 426.615 445.607C434.387 445.607 440.687 439.308 440.687 431.536C440.687 424.072 434.876 417.966 427.533 417.494C419.949 421.965 414.956 430.243 414.997 439.472Z" fill="#E4E4E4"/>
<path d="M472.831 438.931L469.631 465.655H488.885L472.831 438.931Z" fill="#F7F9FF"/>
<path d="M601.439 413.994V415.104C601.461 443.015 578.84 465.653 550.927 465.653H527.463L524.217 581.626H494.816L473.138 443.347C470.721 427.927 482.643 413.992 498.25 413.992H601.439V413.994Z" fill="#172578"/>
<path d="M616.337 354.605L615.292 390.698C615.009 400.452 607.021 408.214 597.262 408.214H534.434L530.216 393.519L585.635 384.385L586.027 354.409L616.337 354.605Z" fill="#FCD4B7"/>
<path d="M586.025 354.41L577.518 385.723L585.633 384.385L586.025 354.41Z" fill="#DCE1F9"/>
<path d="M537.958 392.244L547.863 408.214H534.434L530.216 393.519L537.958 392.244Z" fill="#F9AFAB"/>
<path d="M429.997 350.269H511.92C515.401 350.269 518.462 352.574 519.422 355.92L534.434 408.212H567.654C569.251 408.212 570.545 409.507 570.545 411.103C570.545 412.7 569.251 413.994 567.654 413.994H536.093H526.058H437.928L422.494 360.228C421.062 355.24 424.807 350.269 429.997 350.269Z" fill="#E4E4E4"/>
<path d="M472.831 438.931C475.31 442.938 479.745 445.607 484.804 445.607C492.576 445.607 498.876 439.308 498.876 431.536C498.876 423.962 492.893 417.784 485.394 417.475C477.943 421.856 472.984 429.907 472.831 438.931Z" fill="#E4E4E4"/>
<path d="M475.64 388.775C477.313 388.628 478.495 386.529 478.28 384.087C478.065 381.645 476.535 379.784 474.862 379.931C473.19 380.079 472.008 382.178 472.222 384.62C472.437 387.062 473.967 388.922 475.64 388.775Z" fill="#89AEFF"/>
<path d="M599.857 312.224C599.857 316.774 603.548 320.464 608.098 320.464C611.381 320.464 614.212 318.545 615.538 315.769C614.374 311.272 611.976 307.198 608.648 304.004C608.466 303.99 608.283 303.985 608.098 303.985C603.546 303.985 599.857 307.673 599.857 312.224Z" fill="#DCE1F9"/>
<path d="M487.728 310.824C489.041 311.708 490.622 312.224 492.324 312.224C496.874 312.224 500.563 308.534 500.563 303.985C500.563 302.602 500.223 301.299 499.621 300.156L499.039 300.419C494.241 302.585 490.28 306.238 487.728 310.824Z" fill="#DCE1F9"/>
<path d="M320.817 385.133L292.059 617.645H286.348L315.106 385.133H320.817Z" fill="#A8B2D6"/>
<path d="M197.26 473.325L179.851 617.645H174.143L191.549 473.325H197.26Z" fill="#A8B2D6"/>
<path d="M120.331 473.323L118.374 489.555L102.924 617.644H97.2148L112.741 488.921L114.622 473.323H120.331Z" fill="#A8B2D6"/>
<path d="M197.26 617.644H191.549L189.143 597.685L186.287 574.018L176.898 496.174L174.143 473.323H179.852L182.687 496.825L189.143 550.349L191.997 574.015L197.26 617.644Z" fill="#A8B2D6"/>
<path d="M274.187 617.644H268.478L254.967 505.626H254.966L251.07 473.323H256.779L260.751 506.25L274.187 617.644Z" fill="#A8B2D6"/>
<path d="M120.609 376.848H114.9V464.148H120.609V376.848Z" fill="#A8B2D6"/>
<path d="M198.191 376.848H192.482V464.148H198.191V376.848Z" fill="#A8B2D6"/>
<path d="M259.177 464.148H180.733C183.266 464.148 185.321 466.203 185.321 468.736C185.321 471.269 183.266 473.323 180.733 473.323H259.177C261.71 473.323 263.764 471.269 263.764 468.736C263.764 466.203 261.71 464.148 259.177 464.148Z" fill="#A8B2D6"/>
<path d="M185.321 468.736C185.321 466.203 183.266 464.148 180.733 464.148H120.732H113.002C110.469 464.148 108.414 466.203 108.414 468.736C108.414 471.269 110.469 473.323 113.002 473.323H120.732H180.733C183.266 473.323 185.321 471.269 185.321 468.736Z" fill="#ABC4FF"/>
<path d="M200.577 376.848H112.516C107.726 376.848 103.842 372.965 103.842 368.175V319.825C103.842 315.035 107.726 311.151 112.516 311.151H200.577C205.367 311.151 209.25 315.035 209.25 319.825V368.175C209.25 372.966 205.368 376.848 200.577 376.848Z" fill="#A8B2D6"/>
<path d="M120.331 473.323L118.373 489.555C116.31 489.323 114.425 489.111 112.74 488.921L114.622 473.323H120.331Z" fill="#AEC3FF"/>
<path d="M179.852 473.323L182.687 496.827C180.748 496.61 178.817 496.391 176.898 496.174L174.143 473.323H179.852Z" fill="#AEC3FF"/>
<path d="M260.751 506.25C258.909 506.053 256.976 505.844 254.967 505.627H254.966L251.07 473.323H256.779L260.751 506.25Z" fill="#AEC3FF"/>
<path d="M114.9 376.848H120.609V388.906L114.9 388.275V376.848Z" fill="#AEC3FF"/>
<path d="M198.191 376.848V397.495L192.482 396.863V376.848H198.191Z" fill="#AEC3FF"/>
<path d="M209.359 223.646C202.65 234.744 182.147 250.712 151.658 240.965V240.967C151.563 240.953 151.468 240.945 151.368 240.945C144.115 240.945 143.61 261.116 155.815 262.282C155.995 262.874 156.18 263.435 156.368 263.963V296.766H183.899V284.016C185.818 284.557 187.657 284.867 189.342 284.867C200.73 284.867 220.526 267.3 220.976 239.627C217.929 238.941 209.359 231.39 209.359 223.646Z" fill="#FCDCD8"/>
<path d="M226.76 231.58C226.76 213.353 210.684 198.584 186.579 198.584C166.545 198.584 159.66 209.639 159.66 209.639C159.66 209.639 140.724 213.731 140.724 237.261C140.724 259.134 140.724 296.767 140.724 296.767H171.838H173.425H196.404H221.383V247.762C223.356 245.339 226.76 239.949 226.76 231.58ZM189.342 284.869C187.658 284.869 185.819 284.558 183.9 284.017V296.767H156.368V263.965C156.18 263.439 155.995 262.875 155.815 262.283C143.61 261.116 144.115 240.947 151.368 240.947C151.467 240.947 151.564 240.955 151.659 240.969V240.967C182.147 250.714 202.651 234.744 209.359 223.648C209.359 231.391 217.929 238.941 220.978 239.63C220.526 267.302 200.73 284.869 189.342 284.869Z" fill="#311643"/>
<path d="M134.806 294.348L156.368 284.358L168.202 284.672L183.899 285.412L206.459 292.261V321.046H134.806V294.348Z" fill="#FCDCD8"/>
<path d="M206.46 322.809V292.263L183.9 285.414V284.017C177.52 282.217 170.269 277.857 164.945 273.788L206.46 322.809Z" fill="#F9AFAB"/>
<path d="M207.307 232.639C201.823 232.639 197.295 236.809 196.725 242.143C193.744 240.74 191.112 241.5 189.723 242.138C189.149 236.805 184.624 232.639 179.142 232.639C173.274 232.639 168.5 237.413 168.5 243.281C168.5 249.15 173.274 253.924 179.142 253.924C184.88 253.924 189.57 249.36 189.775 243.672C190.659 243.163 193.467 241.867 196.672 243.684C196.884 249.366 201.572 253.924 207.305 253.924C213.173 253.924 217.948 249.15 217.948 243.281C217.948 237.413 213.175 232.639 207.307 232.639ZM179.142 252.533C174.042 252.533 169.891 248.383 169.891 243.281C169.891 238.181 174.041 234.031 179.142 234.031C184.244 234.031 188.394 238.181 188.394 243.281C188.394 248.383 184.244 252.533 179.142 252.533ZM207.307 252.533C202.206 252.533 198.055 248.383 198.055 243.281C198.055 238.181 202.205 234.031 207.307 234.031C212.408 234.031 216.558 238.181 216.558 243.281C216.558 248.383 212.408 252.533 207.307 252.533Z" fill="white"/>
<path d="M207.312 250.088C206.474 250.088 205.794 249.408 205.794 248.569V245.733C205.794 244.893 206.474 244.213 207.312 244.213C208.15 244.213 208.831 244.893 208.831 245.733V248.569C208.831 249.408 208.152 250.088 207.312 250.088Z" fill="#311643"/>
<path d="M179.603 250.088C178.765 250.088 178.084 249.408 178.084 248.569V245.733C178.084 244.893 178.765 244.213 179.603 244.213C180.443 244.213 181.121 244.893 181.121 245.733V248.569C181.123 249.408 180.443 250.088 179.603 250.088Z" fill="#311643"/>
<path d="M190.448 268.128C187.737 268.128 185.891 267.109 184.773 266.181C183.363 265.01 182.778 263.732 182.752 263.678C182.594 263.327 182.751 262.914 183.102 262.757C183.451 262.599 183.862 262.755 184.021 263.103C184.101 263.276 186.027 267.312 191.621 266.666C192.004 266.622 192.348 266.895 192.392 267.278C192.437 267.66 192.163 268.006 191.78 268.05C191.313 268.103 190.869 268.128 190.448 268.128Z" fill="#311643"/>
<path d="M252.768 606.796L227.512 595.939L228.806 602.197L197.739 592.442V601.344C197.739 604.474 199.376 607.313 201.95 608.908L204.622 616.546C204.853 617.206 205.476 617.649 206.177 617.649C207.086 617.649 207.822 616.913 207.822 616.003V611.035L229.056 617.649H250.535C253.658 617.649 256.19 615.117 256.19 611.994C256.188 609.731 254.843 607.688 252.768 606.796Z" fill="#C4C4C4"/>
<path d="M307.84 606.796L282.584 595.939L283.879 602.197L252.812 592.442V601.344C252.812 604.474 254.449 607.313 257.023 608.908L259.695 616.546C259.926 617.206 260.548 617.649 261.249 617.649C262.159 617.649 262.895 616.913 262.895 616.003V611.035L284.128 617.649H305.607C308.731 617.649 311.262 615.117 311.262 611.994C311.262 609.731 309.917 607.688 307.84 606.796Z" fill="#C4C4C4"/>
<path d="M197.739 580.599L197.753 592.44L228.806 602.196L227.512 595.939L224.933 594.621L227.188 580.599H197.739Z" fill="#FCDCD8"/>
<path d="M252.812 580.599L252.827 592.44L283.88 602.196L282.584 595.939L280.005 594.626L282.26 580.599H252.812Z" fill="#FCDCD8"/>
<path d="M175.462 412.689V413.802C175.44 441.761 198.098 464.436 226.057 464.436H249.56L252.813 580.601H282.261L303.975 442.095C306.396 426.649 294.455 412.691 278.822 412.691H175.462V412.689Z" fill="#3D4889"/>
<path d="M247.539 450.781L249.56 464.435H245.271L247.539 450.781Z" fill="#F7F9FF"/>
<path d="M129.262 433.792C130.736 451.122 145.232 464.436 162.624 464.436H194.487L197.739 580.601H227.187L248.672 443.558C251.213 427.345 238.679 412.691 222.267 412.691H219.911L213.151 392.488H135.578L129.681 424.975C129.151 427.881 129.011 430.847 129.262 433.792Z" fill="#3D4889"/>
<path d="M174.543 308.057C179.772 308.057 183.954 303.021 186.774 297.921H156.954C161.501 303.008 167.731 308.057 174.543 308.057Z" fill="white"/>
<path d="M230.584 308.834L228.521 305.622C225.842 301.452 222.072 298.133 217.657 296.002C216.427 295.41 215.15 294.909 213.828 294.507L190.852 287.51C190.852 288.342 189.407 293.16 186.774 297.923C183.954 303.023 179.772 308.058 174.543 308.058C167.731 308.058 161.502 303.009 156.954 297.923C152.339 292.762 149.456 287.561 149.456 287.561L128.926 297.075C120.524 300.968 114.336 308.459 112.1 317.447L102.948 346.692C101.382 351.697 100.585 356.911 100.585 362.155V364.578C100.585 370.864 105.682 375.959 111.968 375.959H133.856L135.578 392.486H213.15L232.701 312.128L230.584 308.834Z" fill="#DE83F5"/>
<path d="M175.308 315.312C170.995 315.312 166.608 314 162.264 311.411C158.817 309.356 155.39 306.498 152.078 302.911C146.457 296.827 143.031 290.614 142.997 290.553L144.151 290.018C144.183 290.079 147.505 296.1 153.026 302.073C156.253 305.563 159.584 308.342 162.924 310.33C167.064 312.796 171.231 314.044 175.308 314.044C179.156 314.044 182.622 312.76 185.61 310.227C188.027 308.177 190.148 305.308 191.911 301.701C194.941 295.5 195.868 289.1 195.876 289.038L197.135 289.421C197.098 289.684 196.171 295.851 193.061 302.23C191.222 306.004 188.994 309.015 186.441 311.184C183.216 313.924 179.47 315.312 175.308 315.312Z" fill="white"/>
<path d="M303.995 441.939C301.423 444.71 297.749 446.444 293.668 446.444C285.882 446.444 279.571 440.132 279.571 432.347C279.571 424.561 285.882 418.251 293.668 418.251C294.035 418.251 294.399 418.264 294.759 418.291C301.534 423.744 305.412 432.56 303.995 441.939Z" fill="#E4E4E4"/>
<path d="M248.996 439.047C246.612 443.453 241.951 446.444 236.592 446.444C228.806 446.444 222.496 440.132 222.496 432.347C222.496 424.561 228.806 418.251 236.592 418.251C237.35 418.251 238.093 418.312 238.819 418.427C244.975 423.297 248.899 430.791 248.996 439.047Z" fill="#E4E4E4"/>
<path d="M110.821 375.957H195.936V365.214L111.99 355.556C105.914 354.857 100.585 359.607 100.585 365.723C100.587 371.377 105.168 375.957 110.821 375.957Z" fill="#FCDCD8"/>
<path d="M302.416 312.127H215.448C211.962 312.127 208.896 314.436 207.934 317.789L192.897 370.167H159.692C158.122 370.167 156.784 371.387 156.73 372.956C156.672 374.603 157.989 375.957 159.624 375.957H201.286H289.562L306.377 317.383C307.132 314.752 305.156 312.127 302.416 312.127Z" fill="#E4E4E4"/>
<path d="M255.769 346.38C255.984 343.934 254.8 341.832 253.124 341.685C251.449 341.538 249.916 343.401 249.701 345.847C249.486 348.292 250.67 350.394 252.346 350.542C254.021 350.689 255.554 348.826 255.769 346.38Z" fill="#2F3D6C"/>
<path d="M135.576 392.486L132.473 409.579L214.932 397.815L213.149 392.486H135.576Z" fill="#E4E4E4"/>
<path d="M131.115 301.954C131.115 307.112 126.934 311.292 121.775 311.292C119.418 311.292 117.265 310.418 115.621 308.978C118.738 303.832 123.342 299.66 128.924 297.073L129.55 296.783C130.539 298.264 131.115 300.044 131.115 301.954Z" fill="#E478FF"/>
<path d="M230.584 308.834C229.137 309.757 227.418 310.289 225.576 310.289C220.418 310.289 216.236 306.109 216.236 300.951C216.236 299.134 216.757 297.436 217.656 296C222.072 298.131 225.842 301.45 228.519 305.62L230.584 308.834Z" fill="#E478FF"/>
<path d="M200.72 342.919C200.358 344.176 184.563 361.187 184.563 361.187L142.475 359.064L194.373 365.036L200.72 342.919Z" fill="#E478FF"/>
<path d="M34.4685 385.134L26.7745 447.341L5.71079 617.645H0L21.0043 447.828L28.7594 385.134H34.4685Z" fill="#A8B2D6"/>
<path d="M110.033 617.645H104.324L82.6765 442.628L75.5659 385.134H81.2751L88.3279 442.152L110.033 617.645Z" fill="#A8B2D6"/>
<path d="M28.7591 385.134H34.4682L26.7741 447.341L21.0039 447.828L28.7591 385.134Z" fill="#AEC3FF"/>
<path d="M81.2751 385.134L88.3279 442.152L82.6766 442.628L75.5659 385.134H81.2751Z" fill="#AEC3FF"/>
<path d="M396.381 617.645H390.672L366.069 418.728L361.914 385.134H367.623L371.721 418.251L396.381 617.645Z" fill="#A8B2D6"/>
<path d="M371.721 418.251L366.069 418.728L361.914 385.134H367.623L371.721 418.251Z" fill="#AEC3FF"/>
<path d="M382.755 375.957H91.553V385.133H382.755C385.289 385.133 387.343 383.078 387.343 380.545C387.343 378.012 385.289 375.957 382.755 375.957Z" fill="#A8B2D6"/>
<path d="M32.2779 375.957H15.0706C12.5375 375.957 10.4829 378.012 10.4829 380.545C10.4829 383.078 12.5375 385.133 15.0706 385.133H32.2779H91.5528V375.957H32.2779Z" fill="#ABC4FF"/>
<path d="M376.205 365.701V363.363C376.205 362.639 375.618 362.053 374.895 362.053H320.621C317.883 362.053 315.664 364.273 315.664 367.011V371C315.664 373.738 317.883 375.959 320.621 375.959H374.895C375.618 375.959 376.205 375.372 376.205 374.649V372.31C376.205 371.587 375.618 371 374.895 371H322.615C321.514 371 320.621 370.108 320.621 369.006C320.621 367.905 321.514 367.013 322.615 367.013H374.895C375.619 367.011 376.205 366.426 376.205 365.701Z" fill="#172578"/>
<path d="M373.861 367.011V371H322.616C321.515 371 320.623 370.108 320.623 369.007C320.623 367.905 321.515 367.013 322.616 367.013H373.861V367.011Z" fill="#A8B2D6"/>
<path d="M372.328 351.797V349.458C372.328 348.735 371.741 348.148 371.018 348.148H324.5C321.762 348.148 319.542 350.369 319.542 353.107V357.096C319.542 359.834 321.762 362.053 324.5 362.053H371.018C371.741 362.053 372.328 361.468 372.328 360.744V358.404C372.328 357.681 371.741 357.094 371.018 357.094H326.494C325.393 357.094 324.5 356.202 324.5 355.101C324.5 354 325.393 353.107 326.494 353.107H371.018C371.741 353.105 372.328 352.52 372.328 351.797Z" fill="#F9A0C0"/>
<path d="M370.602 353.106V357.094H326.494C325.393 357.094 324.5 356.202 324.5 355.101C324.5 354 325.393 353.107 326.494 353.107H370.602V353.106Z" fill="#FFD9E8"/>
<path d="M57.841 353.645H83.4517C84.7157 353.645 85.6945 354.75 85.5435 356.003L83.377 374.101C83.2497 375.16 82.3522 375.957 81.285 375.957H60.0078C58.9406 375.957 58.043 375.16 57.9158 374.101L55.7492 356.003C55.5999 354.75 56.5787 353.645 57.841 353.645Z" fill="#EB4335"/>
<path d="M79.4396 346.26V338.031L74.5158 347.384V332.193L70.6476 341.758L66.7793 332.193V347.384L61.8557 338.031V346.26L54.6807 334.724L57.8413 353.645H70.6476H83.4537L86.6144 334.724L79.4396 346.26Z" fill="#2D8F60"/>
<path d="M709.302 472.948L705.487 504.592L700.903 542.586L698.022 566.473L697.042 574.575L694.161 598.468L691.731 618.612H685.968L691.283 574.58L694.161 550.688L695.14 542.586L698.022 518.698V518.693L699.934 502.842L703.538 472.948H709.302Z" fill="#B2BDD3"/>
<path d="M747.904 618.612H742.142L729.3 512.127L724.572 472.948H730.335L735.289 514.019L747.904 618.612Z" fill="#B2BDD3"/>
<path d="M671.469 472.948L669.039 493.071L659.209 574.575L656.328 598.468L653.899 618.612H648.135L653.445 574.58L656.328 550.688L663.491 491.314L665.705 472.948H671.469Z" fill="#B2BDD3"/>
<path d="M710.07 618.612H704.308L698.023 566.473L695.14 542.586L689.964 499.686L686.738 472.948H692.502L695.959 501.581L698.023 518.693V518.698L700.903 542.586L710.07 618.612Z" fill="#B2BDD3"/>
<path d="M734.226 472.947H659.445C656.959 472.947 654.946 470.931 654.946 468.447V468.186C654.946 465.701 656.961 463.687 659.445 463.687H734.226C736.711 463.687 738.725 465.702 738.725 468.186V468.447C738.725 470.931 736.711 472.947 734.226 472.947Z" fill="#989898"/>
<path d="M698.165 472.947H659.445C656.959 472.947 654.946 470.931 654.946 468.447V468.186C654.946 465.701 656.961 463.687 659.445 463.687H698.165C700.651 463.687 702.665 465.702 702.665 468.186V468.447C702.665 470.931 700.651 472.947 698.165 472.947Z" fill="#B2BDD3"/>
<path d="M683.91 441.164H709.76C711.034 441.164 712.023 442.277 711.872 443.544L709.685 461.812C709.558 462.881 708.65 463.685 707.573 463.685H686.097C685.02 463.685 684.114 462.881 683.985 461.812L681.798 443.544C681.647 442.278 682.636 441.164 683.91 441.164Z" fill="#FBBC05"/>
<path d="M705.71 433.711V425.404L700.739 434.846V419.511L696.835 429.167L692.931 419.511V434.846L687.962 425.404V433.711L680.72 422.067L683.91 441.164H696.835H709.76L712.951 422.067L705.71 433.711Z" fill="#34A853"/>
<path d="M671.468 472.948L669.039 493.071L663.491 491.314L665.705 472.948H671.468Z" fill="#989898"/>
<path d="M695.959 501.581L689.964 499.686L686.738 472.948H692.502L695.959 501.581Z" fill="#989898"/>
<path d="M709.302 472.948L705.488 504.592L699.935 502.842L703.539 472.948H709.302Z" fill="#989898"/>
<path d="M735.289 514.019L729.3 512.127L724.572 472.948H730.335L735.289 514.019Z" fill="#989898"/>
<path d="M97.2149 138.608V208.514C97.2149 210.981 95.2147 212.981 92.7478 212.981H8.71027C6.24338 212.981 4.24316 210.981 4.24316 208.514V138.608C4.24316 136.141 6.24168 134.14 8.71027 134.14H92.7478C95.2147 134.14 97.2149 136.141 97.2149 138.608Z" fill="#DCE1F9"/>
<path d="M97.2149 138.608V151.787H4.24316V138.608C4.24316 136.141 6.24338 134.14 8.71027 134.14H92.7478C95.2147 134.14 97.2149 136.141 97.2149 138.608Z" fill="#172578"/>
<path d="M29.4385 139.736C28.1644 139.736 27.1328 138.705 27.1328 137.43V130.852C27.1328 129.58 28.1661 128.547 29.4385 128.547C30.7127 128.547 31.7443 129.58 31.7443 130.852V137.43C31.746 138.705 30.7127 139.736 29.4385 139.736Z" fill="#172578"/>
<path d="M72.0189 139.736C70.7447 139.736 69.7131 138.705 69.7131 137.43V130.852C69.7131 129.58 70.7464 128.547 72.0189 128.547C73.293 128.547 74.3246 129.58 74.3246 130.852V137.43C74.3246 138.705 73.293 139.736 72.0189 139.736Z" fill="#172578"/>
<path d="M30.7919 184.344L40.7155 175.431C41.2211 174.975 41.7251 174.457 42.2307 173.879C42.7363 173.302 42.9891 172.629 42.9891 171.858C42.9891 170.993 42.6751 170.313 42.0507 169.819C41.4247 169.325 40.6917 169.079 39.8502 169.079C38.839 169.079 38.0519 169.391 37.4869 170.017C36.9219 170.643 36.603 171.414 36.5301 172.326L31.1177 171.93C31.189 170.606 31.4656 169.458 31.9474 168.484C32.4292 167.51 33.0654 166.697 33.8594 166.047C34.6534 165.398 35.585 164.91 36.6556 164.586C37.7261 164.262 38.8866 164.1 40.1371 164.1C41.2925 164.1 42.3748 164.262 43.3843 164.586C44.3938 164.91 45.2728 165.392 46.0193 166.03C46.7642 166.668 47.3478 167.467 47.7702 168.431C48.191 169.393 48.4013 170.513 48.4013 171.787C48.4013 172.605 48.3164 173.344 48.1484 174.006C47.9804 174.668 47.7447 175.27 47.4444 175.81C47.1441 176.351 46.7877 176.851 46.3805 177.308C45.9716 177.766 45.5255 178.21 45.0453 178.643L37.2866 185.319H48.6167V190.083H30.7903V184.344H30.7919Z" fill="#172578"/>
<path d="M61.3923 180.952C61.1039 181.023 60.8154 181.084 60.527 181.132C60.2386 181.181 59.9366 181.203 59.6244 181.203C58.4215 181.203 57.3273 180.988 56.3416 180.554C55.3541 180.121 54.5126 179.531 53.8153 178.786C53.118 178.041 52.5767 177.157 52.1915 176.134C51.8064 175.112 51.6147 174.023 51.6147 172.868C51.6147 171.544 51.8606 170.348 52.3543 169.278C52.8463 168.207 53.5217 167.287 54.3751 166.517C55.2285 165.747 56.2329 165.151 57.3883 164.731C58.5437 164.31 59.7942 164.1 61.1413 164.1C62.4647 164.1 63.7082 164.31 64.8754 164.731C66.0427 165.151 67.0524 165.747 67.9075 166.517C68.7609 167.287 69.4343 168.207 69.928 169.278C70.4201 170.348 70.6678 171.546 70.6678 172.868C70.6678 173.782 70.5829 174.617 70.415 175.376C70.247 176.134 70.0248 176.85 69.7483 177.523C69.4717 178.197 69.146 178.84 68.7745 179.454C68.4012 180.068 68.0109 180.7 67.602 181.349L62.0082 190.082H55.405L61.3923 180.952ZM57.0252 173.085C57.0252 174.24 57.4037 175.195 58.162 175.954C58.9204 176.712 59.9113 177.091 61.1396 177.091C62.368 177.091 63.3588 176.712 64.1172 175.954C64.8756 175.195 65.2538 174.24 65.2538 173.085C65.2538 171.929 64.8756 170.974 64.1172 170.216C63.3588 169.458 62.368 169.079 61.1396 169.079C59.9113 169.079 58.9204 169.458 58.162 170.216C57.4053 170.974 57.0252 171.931 57.0252 173.085Z" fill="#172578"/>
<path d="M61.4089 203.509H40.0485C39.5293 203.509 39.1084 203.088 39.1084 202.569C39.1084 202.05 39.5293 201.629 40.0485 201.629H61.4089C61.9281 201.629 62.349 202.05 62.349 202.569C62.349 203.088 61.9281 203.509 61.4089 203.509Z" fill="#172578"/>
<path fill-rule="evenodd" clip-rule="evenodd" d="M562.45 282.669C564.451 284.856 564.714 288.971 562.863 292.869L561.521 295.696L563.686 296.672L565.028 293.845C567.578 288.472 567.134 282.732 564.253 279.833L562.45 282.669Z" fill="#0A1033"/>
<path d="M561.839 310.336L562.954 310.85L559.765 317.637C559.063 319.133 557.452 319.883 556.191 319.302L555.609 319.034L556.222 317.73L556.804 317.999C557.466 318.304 558.297 317.917 558.666 317.131L561.855 310.343L561.839 310.336Z" fill="#0A1033"/>
<path d="M556.119 317.029C555.405 316.7 554.572 316.974 554.259 317.641C553.945 318.309 554.27 319.116 554.984 319.445C555.698 319.775 556.531 319.501 556.845 318.833C557.158 318.166 556.833 317.359 556.119 317.029Z" fill="#0A1033"/>
<path d="M550.735 305.218L551.834 305.725L548.646 312.512C548.276 313.299 548.513 314.177 549.175 314.483L549.757 314.751L549.135 316.074L548.554 315.806C547.293 315.225 546.835 313.521 547.538 312.025L550.735 305.218Z" fill="#0A1033"/>
<path d="M550.349 314.37C549.635 314.041 548.802 314.315 548.489 314.982C548.175 315.649 548.5 316.457 549.214 316.786C549.928 317.115 550.761 316.841 551.075 316.174C551.388 315.507 551.063 314.699 550.349 314.37Z" fill="#0A1033"/>
<path d="M551.648 307.212L552.737 305.049C554.201 302.138 557.278 301.447 559.687 302.678C562.096 303.909 562.902 306.583 561.437 309.493L560.348 311.657L562.567 312.791L563.656 310.627C565.448 307.065 564.932 303.023 562.63 300.788C562.2 300.375 562.106 299.653 562.424 299.021L563.666 296.551L561.606 295.499L560.334 298.026C560.026 298.639 559.408 298.997 558.83 298.918C555.721 298.485 552.288 300.438 550.534 303.923L549.445 306.087L551.648 307.212Z" fill="#8B91AB"/>
<path fill-rule="evenodd" clip-rule="evenodd" d="M535.628 281.064C532.199 282.456 530.106 285.687 530.812 288.815L532.823 297.722L532.824 297.725C533.117 297.427 533.498 297.205 533.939 297.106C534.223 297.042 534.507 297.034 534.777 297.075L532.811 288.366C532.314 286.165 533.684 283.905 535.987 282.802L535.628 281.064ZM532.224 299.628C532.21 299.642 532.196 299.657 532.182 299.671L532.577 301.583C532.823 301.445 533.054 301.289 533.266 301.119C532.763 300.825 532.381 300.335 532.244 299.728C532.237 299.695 532.23 299.661 532.224 299.628Z" fill="#0A1033"/>
<path d="M532.302 300.042C532.082 299.065 532.724 298.046 533.797 297.804C534.871 297.561 535.887 298.207 536.107 299.184C536.327 300.16 535.686 301.179 534.612 301.422C533.539 301.664 532.522 301.018 532.302 300.042Z" fill="#0A1033" stroke="#8B91AB" stroke-width="1.29608"/>
<path fill-rule="evenodd" clip-rule="evenodd" d="M190.94 289.618C193.209 291.525 194.005 295.571 192.678 299.677L191.716 302.655L193.989 303.34L194.951 300.363C196.78 294.703 195.592 289.07 192.358 286.571L190.94 289.618Z" fill="#0A1033"/>
<path d="M193.937 317.128L195.11 317.493L192.833 324.638C192.331 326.212 190.832 327.166 189.506 326.754L188.894 326.564L189.332 325.192L189.943 325.382C190.64 325.598 191.413 325.107 191.677 324.279L193.954 317.134L193.937 317.128Z" fill="#0A1033"/>
<path d="M189.139 324.51C188.388 324.277 187.597 324.657 187.374 325.359C187.15 326.062 187.577 326.82 188.328 327.053C189.079 327.287 189.869 326.907 190.093 326.204C190.317 325.502 189.889 324.744 189.139 324.51Z" fill="#0A1033"/>
<path d="M182.262 313.501L183.418 313.86L181.14 321.005C180.877 321.833 181.225 322.673 181.922 322.89L182.534 323.08L182.09 324.472L181.478 324.282C180.152 323.87 179.477 322.241 179.978 320.666L182.262 313.501Z" fill="#0A1033"/>
<path d="M183.071 322.625C182.32 322.392 181.53 322.772 181.306 323.474C181.082 324.177 181.51 324.935 182.261 325.168C183.011 325.402 183.802 325.021 184.025 324.319C184.249 323.617 183.822 322.858 183.071 322.625Z" fill="#0A1033"/>
<path d="M183.427 315.359L184.225 313.072C185.297 309.995 188.258 308.91 190.807 309.816C193.355 310.723 194.503 313.269 193.43 316.346L192.632 318.633L194.979 319.468L195.777 317.18C197.09 313.416 196.052 309.475 193.479 307.559C192.999 307.206 192.811 306.502 193.044 305.834L193.954 303.223L191.774 302.448L190.843 305.12C190.617 305.767 190.05 306.203 189.467 306.2C186.328 306.176 183.179 308.559 181.894 312.243L181.096 314.53L183.427 315.359Z" fill="#8B91AB"/>
<path fill-rule="evenodd" clip-rule="evenodd" d="M155.628 283.019C152.199 284.412 150.106 287.643 150.812 290.771L152.823 299.677L152.824 299.68C153.117 299.382 153.498 299.161 153.939 299.061C154.223 298.997 154.507 298.99 154.777 299.031L152.811 290.321C152.314 288.12 153.684 285.861 155.987 284.757L155.628 283.019ZM152.224 301.583C152.21 301.598 152.196 301.612 152.182 301.626L152.577 303.539C152.823 303.4 153.054 303.244 153.266 303.075C152.763 302.78 152.381 302.291 152.244 301.683C152.237 301.65 152.23 301.617 152.224 301.583Z" fill="#0A1033"/>
<path d="M152.302 301.997C152.082 301.02 152.724 300.001 153.797 299.759C154.871 299.517 155.887 300.162 156.107 301.139C156.327 302.116 155.686 303.135 154.612 303.377C153.539 303.619 152.522 302.974 152.302 301.997Z" fill="#0A1033" stroke="#8B91AB" stroke-width="1.29608"/>
<ellipse cx="535" cy="281.564" rx="3" ry="1.5" transform="rotate(-23.2891 535 281.564)" fill="#FCD4B7"/>
</svg>
