<svg width="250" height="250" viewBox="0 0 250 250" fill="none" xmlns="http://www.w3.org/2000/svg">
<circle cx="125" cy="125" r="125" fill="#DCE1F9"/>
<mask id="mask0" mask-type="alpha" maskUnits="userSpaceOnUse" x="0" y="0" width="250" height="250">
<circle cx="125" cy="125" r="125" fill="#DCE1F9"/>
</mask>
<g mask="url(#mask0)">
<g clip-path="url(#clip0)">
<path d="M55.9418 197.355C58.1695 177.44 75.0078 162.38 95.0469 162.38H151.778C171.817 162.38 188.655 177.44 190.883 197.355L196.825 250.475H50L55.9418 197.355Z" fill="#55C2FF"/>
<mask id="mask1" mask-type="alpha" maskUnits="userSpaceOnUse" x="50" y="162" width="147" height="89">
<path d="M55.9418 197.355C58.1695 177.44 75.0078 162.38 95.0469 162.38H151.778C171.817 162.38 188.655 177.44 190.883 197.355L196.825 250.475H50L55.9418 197.355Z" fill="#00D355"/>
</mask>
<g mask="url(#mask1)">
<path d="M59.4658 197.355C61.6934 177.44 78.5317 162.38 98.5709 162.38H155.302C175.341 162.38 192.179 177.44 194.407 197.355L200.349 250.475H53.5239L59.4658 197.355Z" fill="url(#paint0_linear)"/>
<path d="M62.9892 197.355C65.2168 177.44 82.0551 162.38 102.094 162.38H158.825C178.864 162.38 195.703 177.44 197.93 197.355L203.872 250.475H57.0474L62.9892 197.355Z" fill="url(#paint1_linear)"/>
</g>
<path fill-rule="evenodd" clip-rule="evenodd" d="M160.412 215.237C161.385 215.237 162.174 216.026 162.174 216.999V250.475C162.174 251.448 161.385 252.237 160.412 252.237C159.439 252.237 158.65 251.448 158.65 250.475V216.999C158.65 216.026 159.439 215.237 160.412 215.237Z" fill="url(#paint2_linear)"/>
</g>
<path d="M185.895 54.9619C196.923 86.9141 262.38 159.4 195.882 178.209C133.139 195.957 102.147 132.495 91.1199 100.543C80.0927 68.5904 78.0927 23.2644 120.223 14.8896C133.973 6.86123 174.126 20.8582 185.895 54.9619Z" fill="#7A4513"/>
<path d="M179.118 74.1935C187.534 98.5784 229.187 157.458 179.118 176.011C135.658 192.115 107.927 138.649 105.845 109.304C97.4293 84.9192 96.0195 50.2876 128.557 43.7638C139.191 37.5883 170.136 48.1665 179.118 74.1935Z" fill="#A06126"/>
<path d="M165.643 86.4716C165.643 123.189 150.707 114.815 121.145 114.815C83.7412 134.14 77.2923 106.866 77.2923 81.9624C70.8434 56.84 83.0964 27.8526 121.145 27.8525C180.475 34.2942 171.447 74.2324 165.643 86.4716Z" fill="#7A4513"/>
<path d="M114.053 130.275H129.53L133.605 161.935C134.522 169.058 128.974 175.366 121.792 175.366C114.609 175.366 109.061 169.058 109.978 161.935L114.053 130.275Z" fill="#FBC6D7"/>
<mask id="mask2" mask-type="alpha" maskUnits="userSpaceOnUse" x="109" y="130" width="25" height="46">
<path d="M114.053 130.275H129.53L133.605 161.935C134.522 169.058 128.974 175.366 121.792 175.366C114.609 175.366 109.061 169.058 109.978 161.935L114.053 130.275Z" fill="#FF7CA6"/>
</mask>
<g mask="url(#mask2)">
<path d="M114.697 130.275H130.175L132.109 140.582C126.832 148.771 119.856 149.6 109.538 152.177L114.697 130.275Z" fill="#FF7CA6"/>
</g>
<path d="M86.456 91.2074C87.9663 95.9553 86.1639 100.762 82.4302 101.943C78.6964 103.125 74.4453 100.234 72.9349 95.4857C71.4246 90.7378 73.227 85.9312 76.9607 84.7497C80.6945 83.5683 84.9456 86.4595 86.456 91.2074Z" fill="#FBC6D7"/>
<path d="M84.9194 91.7408C85.9034 94.8374 84.6107 98.0098 82.0322 98.8266C79.4536 99.6434 76.5655 97.7952 75.5815 94.6986C74.5975 91.602 75.8901 88.4295 78.4687 87.6128C81.0473 86.796 83.9353 88.6442 84.9194 91.7408Z" fill="#FF7CA6"/>
<path d="M158.054 93.784C156.544 98.5319 158.346 103.339 162.08 104.52C165.814 105.701 170.065 102.81 171.575 98.0624C173.086 93.3145 171.283 88.5078 167.55 87.3264C163.816 86.145 159.565 89.0361 158.054 93.784Z" fill="#FBC6D7"/>
<path d="M159.591 94.3174C158.607 97.4141 159.9 100.586 162.478 101.403C165.057 102.22 167.945 100.372 168.929 97.2752C169.913 94.1786 168.62 91.0062 166.042 90.1894C163.463 89.3727 160.575 91.2208 159.591 94.3174Z" fill="#FF7CA6"/>
<path d="M160.485 96.7782C160.485 121.682 143.162 141.87 121.792 141.87C100.422 141.87 83.0981 121.682 83.0981 96.7782C83.0981 71.8748 100.422 51.6866 121.792 51.6866C143.162 51.6866 160.485 71.8748 160.485 96.7782Z" fill="#FBC6D7"/>
<path fill-rule="evenodd" clip-rule="evenodd" d="M129.709 126.541C130.041 127.098 129.858 127.819 129.301 128.151C126.733 129.681 124.544 130.629 122.258 130.665C119.951 130.701 117.748 129.809 115.143 128.129C114.598 127.778 114.441 127.051 114.792 126.506C115.144 125.96 115.871 125.803 116.416 126.155C118.859 127.73 120.591 128.342 122.221 128.316C123.871 128.29 125.619 127.61 128.099 126.133C128.656 125.801 129.377 125.984 129.709 126.541Z" fill="#FF7FA8"/>
<path d="M106.97 96.6027C106.97 99.5219 105.655 101.888 104.034 101.888C102.412 101.888 101.097 99.5219 101.097 96.6027C101.097 93.6835 102.412 91.317 104.034 91.317C105.655 91.317 106.97 93.6835 106.97 96.6027Z" fill="black"/>
<path d="M142.208 96.6027C142.208 99.5219 140.894 101.888 139.272 101.888C137.65 101.888 136.335 99.5219 136.335 96.6027C136.335 93.6835 137.65 91.317 139.272 91.317C140.894 91.317 142.208 93.6835 142.208 96.6027Z" fill="black"/>
<path fill-rule="evenodd" clip-rule="evenodd" d="M120.183 93.3724C120.832 93.3724 121.358 93.8983 121.358 94.547V110.769L126.736 109.834C127.375 109.723 127.983 110.151 128.095 110.79C128.206 111.429 127.778 112.037 127.139 112.149L120.385 113.323C120.043 113.383 119.693 113.288 119.427 113.065C119.162 112.842 119.009 112.513 119.009 112.166V94.547C119.009 93.8983 119.535 93.3724 120.183 93.3724Z" fill="#FF7FA8"/>
<path d="M83.4766 70.5046C83.4766 66.9241 86.6608 64.1828 90.2106 64.6511C114.438 67.8471 130.655 67.9023 155.443 64.6471C158.992 64.181 162.175 66.9221 162.175 70.5016V77.457C162.175 80.314 160.111 82.7626 157.291 83.2226C130.18 87.6455 113.546 87.831 88.2448 83.2913C85.4762 82.7945 83.4766 80.369 83.4766 77.5562V70.5046Z" fill="white"/>
<mask id="mask3" mask-type="alpha" maskUnits="userSpaceOnUse" x="83" y="64" width="80" height="23">
<path d="M83.4766 70.5046C83.4766 66.9241 86.6608 64.1828 90.2106 64.6511C114.438 67.8471 130.655 67.9023 155.443 64.6471C158.992 64.181 162.175 66.9221 162.175 70.5016V77.457C162.175 80.314 160.111 82.7626 157.291 83.2226C130.18 87.6455 113.546 87.831 88.2448 83.2913C85.4762 82.7945 83.4766 80.369 83.4766 77.5562V70.5046Z" fill="white"/>
</mask>
<g mask="url(#mask3)">
<path d="M100.423 97.0519C96.9125 93.1798 99.996 86.6875 105.211 86.3378C138.071 84.1344 162.536 66.1205 175.326 64.4688C187.142 62.9431 182.377 75.8246 180.114 80.824C179.542 82.0877 178.466 83.0398 177.175 83.5482C149.276 94.5366 132.669 98.278 104.783 98.9318C103.126 98.9706 101.536 98.2796 100.423 97.0519Z" fill="#E9E9E9"/>
</g>
<path d="M85.0317 78.7415C86.3215 78.0973 93.4153 59.4165 115.342 52.3307C123.94 64.1404 144.749 87.631 159.194 87.1157C163.709 76.3796 166.804 53.7479 143.072 49.1099C113.407 43.3124 85.0317 47.8216 85.0317 63.2815V78.7415Z" fill="#7A4513"/>
</g>
<defs>
<linearGradient id="paint0_linear" x1="126.936" y1="162.38" x2="126.936" y2="250.475" gradientUnits="userSpaceOnUse">
<stop stop-color="#367FF7"/>
<stop offset="1" stop-color="#CCDFFF" stop-opacity="0"/>
</linearGradient>
<linearGradient id="paint1_linear" x1="115.484" y1="270.443" x2="140.15" y2="162.38" gradientUnits="userSpaceOnUse">
<stop stop-color="#72A7FE"/>
<stop offset="1" stop-color="#A5D9F6"/>
</linearGradient>
<linearGradient id="paint2_linear" x1="160.412" y1="250.475" x2="160.412" y2="216.999" gradientUnits="userSpaceOnUse">
<stop stop-color="#77CEFF"/>
<stop offset="1" stop-color="#77FF9D" stop-opacity="0"/>
</linearGradient>
<clipPath id="clip0">
<rect width="146.825" height="88.0948" fill="white" transform="translate(50 162.38)"/>
</clipPath>
</defs>
</svg>
