<svg width="20" height="20" viewBox="0 0 20 20" fill="none" xmlns="http://www.w3.org/2000/svg">
<path opacity="0.4" d="M19.0393 12.3319L17.3752 11.371C17.5432 10.4648 17.5432 9.53507 17.3752 8.62882L19.0393 7.66788C19.2307 7.55851 19.3166 7.33195 19.2541 7.12101C18.8205 5.73038 18.0823 4.47257 17.1174 3.4257C16.969 3.26554 16.7268 3.22648 16.5393 3.33585L14.8752 4.29679C14.176 3.69523 13.3713 3.23038 12.5002 2.9257V1.00773C12.5002 0.788977 12.3479 0.597571 12.133 0.550696C10.6995 0.230383 9.2307 0.246008 7.86742 0.550696C7.65258 0.597571 7.50024 0.788977 7.50024 1.00773V2.9296C6.63305 3.2382 5.82836 3.70304 5.12524 4.3007L3.46508 3.33976C3.27368 3.23038 3.03539 3.26554 2.88696 3.4296C1.92211 4.47257 1.18383 5.73038 0.750239 7.12491C0.683833 7.33585 0.773677 7.56241 0.965083 7.67179L2.62914 8.63273C2.46118 9.53898 2.46118 10.4687 2.62914 11.3749L0.965083 12.3359C0.773677 12.4452 0.687739 12.6718 0.750239 12.8827C1.18383 14.2734 1.92211 15.5312 2.88696 16.578C3.03539 16.7382 3.27758 16.7773 3.46508 16.6679L5.12914 15.7069C5.82836 16.3085 6.63305 16.7734 7.50414 17.078V18.9999C7.50414 19.2187 7.65649 19.4101 7.87133 19.4569C9.30492 19.7773 10.7737 19.7616 12.137 19.4569C12.3518 19.4101 12.5041 19.2187 12.5041 18.9999V17.078C13.3713 16.7694 14.176 16.3046 14.8791 15.7069L16.5432 16.6679C16.7346 16.7773 16.9729 16.7421 17.1213 16.578C18.0862 15.5351 18.8244 14.2773 19.258 12.8827C19.3166 12.6679 19.2307 12.4413 19.0393 12.3319ZM10.0002 13.1249C8.27758 13.1249 6.87524 11.7226 6.87524 9.99991C6.87524 8.27726 8.27758 6.87491 10.0002 6.87491C11.7229 6.87491 13.1252 8.27726 13.1252 9.99991C13.1252 11.7226 11.7229 13.1249 10.0002 13.1249Z" fill="#F7F9FF"/>
</svg>
